<svg width="76" height="67" viewBox="0 0 76 67" fill="none" xmlns="http://www.w3.org/2000/svg">
<path d="M15.4947 38.6042C15.5372 38.6042 15.5372 38.6042 15.5797 38.6042C15.8773 38.6468 16.1324 38.7743 16.345 39.0294C16.6426 39.4546 16.5151 40.0073 16.175 40.3474L14.1767 42.2606C13.4539 42.9834 13.2839 44.2589 13.9641 45.0241C14.3468 45.4918 14.942 45.7894 15.4947 45.7894C15.8348 45.7894 16.175 45.7044 16.5151 45.5343L27.9519 38.9444C28.0794 38.8593 28.2495 38.8168 28.4195 38.8168C28.5046 38.8168 28.5896 38.8168 28.6746 38.8593C28.9297 38.9444 29.1423 39.0719 29.2699 39.2845C29.3974 39.4971 29.4399 39.7522 29.3549 40.0073C29.3124 40.2198 29.1848 40.3899 28.9722 40.5175L22.8925 43.9613C22.1272 44.4289 21.8721 45.4068 22.3823 46.1296C22.6799 46.6398 23.2326 46.9374 23.7853 46.9374C24.0404 46.9374 24.338 46.8523 24.5931 46.7248L30.4603 43.3235C30.5453 43.281 30.6304 43.2385 30.6729 43.196L32.5436 42.1331C32.6711 42.048 32.8412 42.0055 33.0113 42.0055C33.3514 42.0055 33.6915 42.2181 33.8616 42.5582C34.0742 43.0259 33.8616 43.5361 33.4364 43.7912L31.6082 44.8541C31.5232 44.8966 31.4382 44.9391 31.3957 44.9816L25.5285 48.3829C24.7632 48.8506 24.4656 49.8285 24.9332 50.5937C24.9757 50.6788 25.0608 50.8063 25.1458 50.8913C25.4434 51.2315 25.9111 51.4015 26.3363 51.4015C26.5914 51.4015 26.889 51.3165 27.1441 51.189L33.1388 47.7452C33.2664 47.7027 33.3939 47.6601 33.4789 47.6601C33.8191 47.6601 34.1592 47.8727 34.3293 48.2128C34.5418 48.6805 34.3293 49.1907 33.9041 49.4458L31.8633 50.6363C31.7783 50.6788 31.6933 50.7213 31.6508 50.7638L28.207 52.762C27.7393 53.0597 27.3566 53.5273 27.3141 54.08C27.2291 55.1004 28.0369 55.8657 28.9297 55.8657C29.1848 55.8657 29.4824 55.7807 29.7375 55.6531L33.3939 53.5273C33.5215 53.4848 33.649 53.4423 33.7766 53.4423C33.8616 53.4423 33.9466 53.4423 34.0316 53.4848C34.3293 53.5699 34.5418 53.7399 34.6694 54.0375C34.882 54.5052 34.6269 55.0154 34.2442 55.2705L29.0998 58.2466L21.8721 62.3707C20.1714 63.3485 18.3007 63.8587 16.3875 63.8587C15.4097 63.8587 14.4743 63.7312 13.4964 63.4761L11.0305 62.7958C10.903 62.7533 10.7329 62.7533 10.6054 62.7533C10.3078 62.7533 10.0527 62.8383 9.79756 62.9659L7.33164 64.4114C6.82145 64.709 6.65138 65.3468 6.94899 65.857C7.24661 66.3672 7.88434 66.5372 8.39454 66.2396L10.6904 64.9216L12.9437 65.5168C14.0492 65.8144 15.2396 65.9845 16.3875 65.9845C18.6834 65.9845 20.9367 65.3893 22.935 64.2414L30.1202 60.1173L35.3071 57.0987C36.7952 56.2484 37.2629 54.3777 36.4125 52.8896C36.0299 52.2093 35.4347 51.7417 34.7119 51.4866L34.967 51.359C36.1149 50.6788 36.7952 49.4033 36.5401 48.0853C36.3275 46.8948 35.4772 46.0445 34.4568 45.7044H34.4993C35.6047 45.0667 36.285 43.7912 36.0724 42.5157C35.8173 40.9851 34.4993 39.9222 33.0538 39.9222C32.5011 39.9222 31.9909 40.0498 31.5232 40.3474L31.3957 40.4324C31.5657 39.6671 31.4382 38.9019 31.0555 38.2641C30.6304 37.5413 29.9926 37.0312 29.1848 36.8186C28.9297 36.7335 28.6746 36.7335 28.377 36.7335C27.8243 36.7335 27.3141 36.8611 26.8465 37.1587L16.26 43.281L17.5355 42.048C18.7259 40.9426 18.896 38.9019 17.8331 37.6689C17.2804 37.0312 16.5151 36.6485 15.6648 36.5635C15.5797 36.5635 15.4947 36.5635 15.4097 36.5635C14.6444 36.5635 13.9216 36.8186 13.3689 37.3288L8.18196 41.8355C6.22622 43.5361 4.8232 45.7894 4.14294 48.3404L3.16508 51.9117L0.529087 53.4423C0.018896 53.7399 -0.151168 54.3777 0.146444 54.8878C0.444055 55.398 1.08179 55.5681 1.59199 55.2705L4.39804 53.6549C4.78068 53.4423 5.03578 53.1022 5.16332 52.677L6.18371 48.8931C6.73641 46.7673 7.92686 44.8966 9.58498 43.4511L14.8144 38.8593C15.027 38.6893 15.2396 38.6042 15.4947 38.6042Z" fill="white"/>
<path d="M59.7963 38.6042C59.7537 38.6042 59.7538 38.6042 59.7112 38.6042C59.4136 38.6468 59.1585 38.7743 58.9459 39.0294C58.6483 39.4546 58.7759 40.0073 59.116 40.3474L61.1143 42.2606C61.837 42.9834 62.0071 44.2589 61.3268 45.0241C60.9442 45.4918 60.349 45.7894 59.7963 45.7894C59.4561 45.7894 59.116 45.7044 58.7759 45.5343L47.3816 38.9019C47.2541 38.8168 47.084 38.7743 46.9139 38.7743C46.8289 38.7743 46.7439 38.7743 46.6588 38.8168C46.4037 38.9019 46.1912 39.0294 46.0636 39.242C45.9361 39.4546 45.8935 39.7097 45.9786 39.9648C46.0211 40.1773 46.1486 40.3474 46.3612 40.4749L52.3985 43.9613C53.1638 44.4289 53.4189 45.4068 52.9087 46.1296C52.6111 46.6398 52.0584 46.9374 51.5057 46.9374C51.2506 46.9374 50.953 46.8523 50.6979 46.7248L44.8307 43.3235C44.7456 43.281 44.6606 43.2385 44.6181 43.196L42.7474 42.1331C42.6198 42.048 42.4498 42.0055 42.2797 42.0055C41.9396 42.0055 41.5994 42.2181 41.4294 42.5582C41.2168 43.0259 41.4294 43.5361 41.8545 43.7912L43.6827 44.8541C43.7678 44.8966 43.8528 44.9391 43.8953 44.9816L49.7625 48.3829C50.5278 48.8506 50.8254 49.8285 50.3577 50.5937C50.3152 50.6788 50.2302 50.8063 50.1451 50.8913C49.8475 51.2315 49.3799 51.4015 48.9547 51.4015C48.6996 51.4015 48.402 51.3165 48.1469 51.189L42.1521 47.7452C42.0246 47.7027 41.8971 47.6601 41.812 47.6601C41.4719 47.6601 41.1318 47.8727 40.9617 48.2128C40.7491 48.6805 40.9617 49.1907 41.3869 49.4458L43.4276 50.6363C43.5127 50.6788 43.5977 50.7213 43.6402 50.7638L47.084 52.762C47.5517 53.0597 47.9343 53.5273 47.9768 54.08C48.0619 55.1004 47.2541 55.8657 46.3612 55.8657C46.1061 55.8657 45.8085 55.7807 45.5534 55.6531L41.8971 53.5273C41.7695 53.4848 41.642 53.4423 41.5144 53.4423C41.4294 53.4423 41.3443 53.4423 41.2593 53.4848C40.9617 53.5699 40.7491 53.7399 40.6216 54.0375C40.409 54.5052 40.6641 55.0154 41.0467 55.2705L46.1912 58.2466L53.3764 62.3707C55.077 63.3485 56.9477 63.8587 58.8609 63.8587C59.8388 63.8587 60.7741 63.7312 61.752 63.4761L64.2179 62.7958C64.3455 62.7533 64.5155 62.7533 64.6431 62.7533C64.9407 62.7533 65.1958 62.8383 65.4509 62.9659L67.9168 64.4114C68.427 64.709 68.5971 65.3468 68.2995 65.857C68.0018 66.3672 67.3641 66.5372 66.8539 66.2396L64.5581 64.9216L62.3047 65.5168C61.1993 65.8144 60.0088 65.9845 58.8609 65.9845C56.5651 65.9845 54.3117 65.3893 52.3135 64.2414L45.1283 60.1173L39.9413 57.0987C38.4533 56.2484 37.9856 54.3777 38.8359 52.8896C39.2185 52.2093 39.8138 51.7417 40.5365 51.4866L40.2814 51.359C39.1335 50.6788 38.4533 49.4033 38.7084 48.0853C38.9209 46.8948 39.7713 46.0445 40.7916 45.7044H40.7491C39.6437 45.0667 38.9634 43.7912 39.176 42.5157C39.4311 40.9851 40.7491 39.9222 42.1947 39.9222C42.7474 39.9222 43.2576 40.0498 43.7252 40.3474L43.8528 40.4324C43.6827 39.6671 43.8103 38.9019 44.1929 38.2641C44.6181 37.5413 45.2558 37.0312 46.0636 36.8186C46.3187 36.7335 46.5738 36.7335 46.8714 36.7335C47.4241 36.7335 47.9343 36.8611 48.402 37.1587L58.9885 43.281L57.713 42.048C56.5225 40.9426 56.3525 38.9019 57.4154 37.6689C57.9681 37.0312 58.7334 36.6485 59.5837 36.5635C59.6687 36.5635 59.7538 36.5635 59.8388 36.5635C60.6041 36.5635 61.3268 36.8186 61.8796 37.3288L67.109 41.9205C69.0647 43.6211 70.4678 45.8745 71.148 48.4254L72.1259 51.9968L74.7619 53.5273C75.2721 53.8249 75.4421 54.4627 75.1445 54.9729C74.8469 55.4831 74.2092 55.6531 73.699 55.3555L70.8929 53.7399C70.5103 53.5273 70.2552 53.1872 70.1276 52.762L69.1073 48.9781C68.5546 46.8523 67.3641 44.9816 65.706 43.5361L60.4765 38.8593C60.2639 38.6893 60.0514 38.6042 59.7963 38.6042Z" fill="white"/>
<path d="M23.2751 21.3005C23.2751 21.343 23.3176 21.343 23.3176 21.3855C23.4876 21.6406 23.7427 21.8107 24.0403 21.8107C24.5505 21.8532 24.9757 21.5131 25.1032 21.0029L25.7835 18.3244C26.0386 17.3465 27.1015 16.5812 28.0794 16.7513C28.7171 16.8363 29.1848 17.219 29.4824 17.7291C29.6525 18.0268 29.7375 18.3669 29.7375 18.7495L29.5674 31.972C29.5674 32.1421 29.6099 32.3121 29.695 32.4397C29.7375 32.5247 29.78 32.5672 29.865 32.6522C30.0351 32.8223 30.2902 32.9499 30.5453 32.9499C30.8004 32.9499 31.0555 32.8648 31.2255 32.6948C31.3956 32.5247 31.4806 32.3546 31.4806 32.1421L31.5657 25.212C31.5657 24.3191 32.331 23.6389 33.2238 23.6814C33.819 23.6814 34.3292 24.0215 34.6268 24.5317C34.7544 24.7868 34.8394 25.0419 34.8394 25.3395L34.7544 32.0995C34.7544 32.1846 34.7544 32.2696 34.7544 32.3546L34.7118 34.5229C34.7118 34.693 34.7544 34.8631 34.8394 34.9906C35.0095 35.2882 35.3496 35.5008 35.7322 35.4583C36.2424 35.4158 36.5825 34.9481 36.6251 34.4804L36.6676 32.3546C36.6676 32.2696 36.6676 32.1846 36.6676 32.0995L36.7526 25.2545C36.7526 24.3616 37.5179 23.6389 38.4107 23.6389C38.5383 23.6389 38.6658 23.6389 38.7934 23.6814C39.2611 23.7664 39.6012 24.064 39.8563 24.4467C39.9838 24.7018 40.0689 24.9569 40.0689 25.2545L39.9838 32.1421C39.9838 32.2696 40.0263 32.3971 40.1114 32.4822C40.2814 32.7798 40.6216 32.9924 41.0042 32.9499C41.5144 32.9073 41.8545 32.4397 41.897 31.972L41.9396 29.5911C41.9396 29.5061 41.9396 29.421 41.9396 29.336L41.9821 25.3395C41.9821 24.7868 42.2372 24.2341 42.7048 23.9365C43.5552 23.3413 44.6181 23.6814 45.0432 24.4892C45.1708 24.7443 45.2558 24.9994 45.2558 25.297L45.2133 29.5061C45.2133 29.6336 45.2558 29.7612 45.3408 29.8462C45.3834 29.9312 45.4259 29.9737 45.4684 30.0588C45.681 30.2714 45.9361 30.3564 46.2337 30.3564C46.7013 30.3139 47.084 29.8462 47.084 29.3785L47.169 23.4263L47.2541 15.1357C47.2966 13.1799 46.7864 11.3092 45.851 9.65112C45.3834 8.8008 44.7881 8.03551 44.1079 7.35526L42.3222 5.52707C42.2372 5.44204 42.1521 5.31449 42.0671 5.18694C41.9396 4.93185 41.8545 4.67675 41.8545 4.37914L41.897 1.53057C41.897 0.93535 42.3647 0.467675 42.9599 0.467675C43.5552 0.467675 44.0228 0.93535 44.0228 1.53057L43.9803 4.20908L45.5959 5.8672C46.4037 6.71752 47.1265 7.61035 47.6792 8.63074C48.7846 10.629 49.3798 12.8823 49.3373 15.1782L49.2523 23.4688L49.1248 29.5061C49.1248 31.2067 47.7217 32.5672 46.0211 32.5247C45.2558 32.5247 44.533 32.2271 43.9803 31.7169V32.0145C43.9803 33.3325 43.1725 34.5655 41.9396 34.9906C40.7916 35.3733 39.6437 35.0757 38.8359 34.3529V34.3954C38.8359 35.7134 38.0281 36.9038 36.8376 37.3715C35.3496 37.9242 33.819 37.244 33.0962 36.011C32.8411 35.5433 32.7136 34.9906 32.7136 34.4804V34.3104C32.1609 34.8206 31.3956 35.0757 30.6303 35.0757C29.8225 35.0757 29.0572 34.7355 28.462 34.1403C28.2919 33.9277 28.1219 33.7151 27.9943 33.5026C27.7392 33.0349 27.6117 32.4822 27.6117 31.972L27.6542 19.7274L27.229 21.4706C26.8039 23.0436 25.1883 24.1916 23.5727 23.894C22.7649 23.7239 22.0421 23.2562 21.5744 22.576C21.5319 22.4909 21.4894 22.4484 21.4469 22.3634C21.0642 21.7256 20.9367 20.9178 21.1067 20.1951L22.5523 13.3925C23.105 10.8416 24.3805 8.50319 26.2512 6.675L28.9297 4.08153L28.9722 1.0629C28.9722 0.467675 29.4399 0 30.0351 0C30.6303 0 31.098 0.467675 31.098 1.0629L31.0555 4.29411C31.0555 4.71927 30.8854 5.14443 30.5453 5.44204L27.7392 8.16306C26.1236 9.69363 25.0607 11.6494 24.5931 13.7752L23.19 20.5777C23.1475 20.8328 23.19 21.0879 23.2751 21.3005Z" fill="#33C5F3"/>
</svg>
