<svg width="72" height="70" viewBox="0 0 72 70" fill="none" xmlns="http://www.w3.org/2000/svg">
<path d="M64.1243 12.3299H55.9436C54.0968 12.3299 52.401 12.9881 51.0781 14.082V13.7203V9.902C51.0781 4.44184 46.6362 0 41.1762 0H31.9003C31.1324 0 30.5099 0.622612 30.5099 1.39038V5.20878C30.5099 10.6688 34.9518 15.1106 40.4118 15.1106H48.2973V19.9761V23.7274V29.205C47.9305 29.1815 47.5617 29.1686 47.191 29.1686C43.5369 29.1686 40.0435 30.2951 37.0889 32.4261C36.4662 32.8752 36.3253 33.7442 36.7745 34.3671C37.2238 34.9898 38.0928 35.131 38.7155 34.6815C41.1936 32.8943 44.1245 31.9495 47.191 31.9495C47.9322 31.9495 48.6649 32.0082 49.3847 32.1184C49.4444 32.1316 49.5054 32.1411 49.5677 32.1465C53.8944 32.8659 57.7205 35.5224 59.889 39.4364C60.1429 39.8946 60.6173 40.1532 61.1064 40.1532C61.3343 40.1532 61.5655 40.097 61.779 39.9787C62.4507 39.6065 62.6934 38.7603 62.3212 38.0886C59.9153 33.7462 55.7963 30.7039 51.0779 29.6135V25.1177H57.8684C62.0844 25.1177 65.5146 21.6877 65.5146 17.4715V13.7203C65.5146 12.9525 64.8922 12.3299 64.1243 12.3299ZM48.2973 12.3299H40.4118C36.4852 12.3299 33.2907 9.13534 33.2907 5.20878V2.78076H41.1762C45.1028 2.78076 48.2973 5.97529 48.2973 9.902V12.3299ZM62.7339 17.4716C62.7339 20.1544 60.5513 22.3371 57.8684 22.3371H51.0781V19.9763C51.0781 17.2935 53.2607 15.1108 55.9436 15.1108H62.7339V17.4716Z" fill="#33C5F3"/>
<path d="M70.7233 45.1235C69.5097 42.3751 66.2864 41.127 63.5381 42.3398C63.5311 42.3429 63.5243 42.346 63.5174 42.3491L54.433 46.5385C53.7356 46.8601 53.4311 47.6861 53.7526 48.3834C54.0742 49.0808 54.9002 49.3851 55.5975 49.0638L64.6707 44.8796C66.0142 44.2926 67.5864 44.9041 68.1793 46.2468C68.7734 47.5925 68.1619 49.1706 66.8163 49.7648L48.2261 57.9729C45.2805 59.2736 41.9369 59.1981 39.0528 57.7651L32.2477 54.3844C28.6216 52.5829 24.4175 52.4877 20.714 54.123L20.5802 54.1822L15.4944 42.6635L22.5553 39.546C25.9189 38.0608 29.6723 37.9411 33.1238 39.2084L46.8083 44.2339C48.0568 44.6925 48.7222 46.0891 48.2917 47.3474C47.8531 48.6299 46.4517 49.3195 45.168 48.8856L34.5858 45.3063C33.8584 45.0602 33.0693 45.4505 32.8232 46.1779C32.5771 46.9054 32.9674 47.6944 33.6949 47.9405L44.277 51.5198C44.8311 51.7072 45.3954 51.7962 45.9509 51.7962C48.1335 51.7962 50.1789 50.4222 50.9229 48.2478C51.8387 45.5708 50.423 42.5991 47.7671 41.6238L34.0828 36.5982C29.9514 35.0812 25.4588 35.2245 21.4325 37.002L14.3262 40.1397C13.9264 39.5254 13.3493 39.0503 12.6526 38.7801C11.7753 38.4403 10.818 38.4624 9.96081 38.8409L0.832281 42.8406C0.326739 43.0622 0 43.5621 0 44.1142V68.6096C0 69.0925 0.250546 69.5407 0.66182 69.7939C0.884559 69.9309 1.13705 70 1.39038 70C1.60477 70 1.81959 69.9505 2.01716 69.8507L19.7389 60.8981C20.5816 60.5148 21.2289 59.8295 21.5638 58.9648C21.8428 58.2446 21.8779 57.4706 21.6713 56.7402L21.837 56.6671C24.7829 55.3664 28.1264 55.4423 31.0104 56.8751L37.8155 60.2558C41.4415 62.0573 45.6454 62.1525 49.3493 60.517L67.9396 52.3089C70.688 51.0953 71.9367 47.8718 70.7233 45.1235ZM18.9709 57.9601C18.8993 58.1449 18.7601 58.2908 18.5788 58.3707C18.5567 58.3805 18.535 58.3909 18.5134 58.4017L2.78076 66.3494V60.2632L6.89322 58.2436C7.58257 57.9051 7.8669 57.072 7.52834 56.3826C7.18979 55.6933 6.35639 55.4089 5.66746 55.7475L2.78076 57.165V45.0228L11.0796 41.3863C11.261 41.3063 11.4626 41.3016 11.6472 41.3731C11.832 41.4447 11.9778 41.584 12.0579 41.7652L18.598 56.5771C18.5985 56.5785 18.5991 56.5798 18.5996 56.581L18.9579 57.3925C19.0379 57.5738 19.0425 57.7754 18.9709 57.9601Z" fill="white"/>
</svg>
