<svg width="70" height="70" viewBox="0 0 70 70" fill="none" xmlns="http://www.w3.org/2000/svg">
<path d="M3.74022 31.1185C2.28789 36.767 2.73395 42.744 5.00809 48.1075C9.97009 58.8661 20.5841 65.7947 32.3134 65.9319C43.586 65.9319 54.1404 59.43 61.2808 50.1667C65.5455 52.4872 65.7852 52.7333 66.5828 52.7333C67.2439 52.7329 67.873 52.4451 68.3103 51.9432C68.7475 51.4413 68.9508 50.7735 68.8685 50.1095L65.8809 25.9C65.7908 25.1705 65.3662 24.5266 64.7352 24.1624C64.1042 23.7983 63.3405 23.7565 62.6743 24.0497L58.631 25.8288C54.2338 17.2083 48.3728 10.7485 39.0954 8.31833C38.6472 5.54487 36.2828 3.50651 33.5064 3.5H5.76305C2.58179 3.50386 0.00381067 6.11327 0 9.33333V25.6667C0.00954323 28.0931 1.49741 30.2618 3.74022 31.1185ZM63.593 26.1917L66.584 50.4C61.4779 47.621 61.4814 47.5872 61.1587 47.5335C60.8683 47.488 60.5717 47.5546 60.3276 47.7202C60.2815 47.7528 60.0579 47.9617 60.0499 47.9733C53.2829 57.1433 43.8591 62.8122 34.1945 63.5285C23.1525 64.3638 11.7682 57.4618 7.10815 47.1368C5.02649 42.1949 4.64256 36.689 6.01778 31.5H15.5453C13.4855 41.8052 21.91 51.1945 31.6322 51.1945C36.7579 51.1945 43.1929 47.9068 47.4875 41.4505C47.4991 41.433 47.4991 41.4132 47.5095 41.3957C47.5198 41.3782 47.536 41.3688 47.5452 41.3513C47.5667 41.2982 47.5833 41.2431 47.5947 41.1868C47.6257 41.1146 47.6485 41.0391 47.6627 40.9617C47.671 40.8143 47.6637 40.6665 47.6408 40.5207C47.4737 39.8382 47.3792 39.9373 40.6722 36.2787L63.593 26.1917ZM32.2731 31.5H33.4257C36.607 31.4962 39.1849 28.8867 39.1888 25.6667V21.4433C43.3382 23.4185 45.5154 26.446 47.7503 30.6192L39.7535 34.139C38.9438 34.495 38.4061 35.2878 38.3688 36.1806C38.3315 37.0733 38.8012 37.9093 39.5783 38.3332L44.817 41.1892C42.2109 44.8215 38.4449 47.4307 34.1565 48.5753C29.2832 49.7222 23.5951 47.4087 20.3251 42.9473C17.8841 39.6823 17.0012 35.4887 17.915 31.5C21.2495 31.5 21.359 31.4043 21.7924 31.7882C31.049 39.9863 30.5073 39.6667 31.1205 39.6667C31.757 39.6667 32.2731 39.1443 32.2731 38.5V31.5ZM56.5125 26.7633L49.8712 29.687C47.1706 24.6167 44.44 21.0443 39.1888 18.9V10.7882C45.6791 12.6863 51.4479 16.9003 56.5125 26.7633ZM2.30522 9.33333C2.30522 7.40034 3.85334 5.83333 5.76305 5.83333H33.5064C34.4143 5.83912 35.2823 6.21236 35.9167 6.86985C36.5511 7.52734 36.8993 8.41442 36.8835 9.33333V25.6667C36.8835 27.5997 35.3354 29.1667 33.4257 29.1667H32.2731C31 29.1667 29.9679 30.2113 29.9679 31.5V35.9333L23.3104 30.037C22.6808 29.4773 21.8719 29.168 21.034 29.1667C4.58278 29.1667 5.58901 29.1842 5.2755 29.1305C3.57179 28.8849 2.30581 27.4086 2.30522 25.6667V9.33333Z" fill="white"/>
<g clip-path="url(#clip0_18_132)">
<path d="M12.9287 11.6094C14.3762 11.7838 15.7487 12.485 17.2731 13.8294C17.6443 14.1556 17.8993 14.3975 18.505 14.9994C18.9362 15.4288 19 15.4831 19.0318 15.4663C19.0525 15.455 19.2193 15.2919 19.405 15.1025C21.55 12.9069 22.9412 11.9825 24.5518 11.6863C25.6018 11.4931 26.6912 11.615 27.6812 12.035C29.3406 12.74 30.5556 14.2231 30.895 15.9594C30.9719 16.3475 30.9906 16.5556 30.9906 17.0188C30.9906 17.7538 30.8894 18.3669 30.6606 19.0156C30.0268 20.8231 28.5137 22.0663 26.6031 22.3513C25.4143 22.5294 24.0962 22.3025 22.9337 21.7231C22.4781 21.4963 22.0937 21.2544 21.6156 20.8963C21.0137 20.4481 20.5731 20.0525 19.6262 19.115C19.2962 18.7869 19.0131 18.5188 19 18.5188C18.985 18.5188 18.8556 18.6425 18.7112 18.7925C18.3887 19.1281 17.6012 19.8875 17.2675 20.1856C15.73 21.5563 14.5637 22.1638 13.0937 22.3663C12.985 22.3813 12.73 22.3888 12.4375 22.3888C12.0381 22.3888 11.9143 22.3813 11.6875 22.3456C10.4687 22.1581 9.42808 21.635 8.57682 20.7856C7.71995 19.9288 7.18557 18.8263 7.0337 17.6C6.99807 17.3094 7.0037 16.5444 7.04495 16.25C7.1912 15.1981 7.56057 14.2494 8.10995 13.5181C8.28807 13.2781 8.6612 12.8956 8.90682 12.7025C9.58933 12.1588 10.4762 11.7913 11.4906 11.6338C11.8131 11.585 12.6043 11.57 12.9287 11.6094ZM24.7993 13.8575C24.1693 13.9906 23.5318 14.2944 22.9056 14.7594C22.6825 14.9244 22.3487 15.1981 22.1312 15.395C21.8575 15.6444 20.4812 16.9888 20.4812 17.0075C20.4812 17.0375 21.6812 18.2244 21.9718 18.485C22.8943 19.3063 23.7475 19.8256 24.55 20.0581C24.9287 20.1669 25.1518 20.1969 25.6093 20.1969C25.9656 20.1969 26.05 20.1913 26.2356 20.1538C27.3418 19.9306 28.1518 19.2088 28.5043 18.1344C28.8043 17.2175 28.7481 16.3475 28.3356 15.5375C27.8631 14.6075 27.0118 13.9925 25.9618 13.8219C25.8437 13.8031 25.6881 13.7975 25.4125 13.8031C25.09 13.8088 24.9906 13.8181 24.7993 13.8575ZM11.9312 13.8219C11.3181 13.9081 10.7968 14.1425 10.3543 14.5306C9.5312 15.2506 9.13745 16.5238 9.38495 17.675C9.6362 18.8469 10.5381 19.7956 11.6893 20.1031C11.9668 20.1763 12.2125 20.2063 12.5406 20.2063C13.1218 20.2063 13.5887 20.09 14.1718 19.8031C14.785 19.5031 15.3756 19.07 16.1162 18.3763C16.5812 17.9413 17.5093 17.0281 17.515 17C17.5206 16.97 16.6412 16.0719 16.2625 15.7231C14.9837 14.5419 13.9731 13.9738 12.8875 13.8219C12.6437 13.7881 12.1712 13.7881 11.9312 13.8219Z" fill="#33C5F3"/>
</g>
<defs>
<clipPath id="clip0_18_132">
<rect width="24" height="12" fill="white" transform="matrix(-1 0 0 1 31 11)"/>
</clipPath>
</defs>
</svg>
