<svg width="70" height="70" viewBox="0 0 70 70" fill="none" xmlns="http://www.w3.org/2000/svg">
<path d="M22.5757 44.0838C24.6025 42.057 24.6025 38.7587 22.5757 36.7319C21.5936 35.7503 20.2883 35.2093 18.8998 35.2093C18.0971 35.2093 17.3227 35.3909 16.6226 35.7333C14.1536 32.201 12.8532 28.0674 12.8532 23.7196C12.8532 12.5925 21.5455 3.3747 32.6416 2.73384C33.3963 2.69004 33.972 2.0433 33.9287 1.28921C33.8849 0.534586 33.2382 -0.0395257 32.4841 0.00213068C19.9417 0.726847 10.1172 11.1447 10.1172 23.7196C10.1172 28.7366 11.6505 33.502 14.5574 37.5496C13.2292 39.5662 13.4513 42.3112 15.2239 44.0838C16.206 45.0654 17.5112 45.6064 18.8998 45.6064C20.2883 45.6064 21.5936 45.0654 22.5757 44.0838ZM17.1582 38.6668C17.6384 38.1867 18.2691 37.9464 18.8998 37.9464C19.53 37.9464 20.1607 38.1867 20.6408 38.6668C21.6011 39.6265 21.6011 41.1892 20.6408 42.1489C19.6806 43.1091 18.1185 43.1091 17.1582 42.1489C16.1985 41.1892 16.1985 39.6271 17.1582 38.6668Z" fill="#33C5F3"/>
<path d="M54.9669 47.396C54.1022 47.396 53.2894 47.6214 52.5839 48.0166C51.9585 46.0336 50.1021 44.5917 47.9151 44.5917C46.5314 44.5917 45.2801 45.169 44.3893 46.095C44.142 45.8387 43.867 45.6096 43.5695 45.4114C46.7226 43.9999 49.56 41.9032 51.856 39.2473C55.5805 34.9375 57.6318 29.4228 57.6318 23.7196C57.6318 18.7053 56.0985 13.9373 53.1922 9.88912C54.5204 7.87252 54.2982 5.128 52.5251 3.35493C50.4984 1.32818 47.2006 1.32818 45.1733 3.35493C43.1465 5.38168 43.1465 8.68002 45.1733 10.7068C46.1869 11.7204 47.5178 12.2272 48.8492 12.2272C49.6295 12.2272 50.4087 12.0515 51.1248 11.7033C53.5949 15.2366 54.8958 19.3735 54.8958 23.7196C54.8958 33.6157 48.1779 41.9806 38.7053 44.1842V36.8206C44.1303 34.8179 47.8366 29.574 47.8366 23.7196C47.8366 16.0212 41.5732 9.75775 33.8742 9.75775C26.1758 9.75775 19.9124 16.0206 19.9124 23.7196C19.9124 26.7579 20.8721 29.6471 22.6868 32.0739C24.2697 34.1903 26.4599 35.8342 28.9171 36.772V56.8947L27.1985 54.0754C25.7544 51.7048 22.7397 50.9357 20.3359 52.3232C18.0496 53.6434 17.1577 56.5401 18.3118 58.9295L23.4147 69.2384C23.6534 69.7207 24.1384 70 24.642 70C24.846 70 25.0527 69.9546 25.2476 69.8579C25.9248 69.5225 26.202 68.7017 25.8671 68.025L20.7695 57.7279C20.2413 56.6336 20.6515 55.3006 21.7041 54.6928C22.792 54.0648 24.2089 54.4263 24.8625 55.4992L29.1168 62.4799C29.4362 63.0033 30.0648 63.2506 30.6549 63.085C31.2451 62.9194 31.6531 62.3811 31.6531 61.7675V30.3798C31.6531 29.19 32.6213 28.2223 33.8112 28.2223C35.0011 28.2223 35.9693 29.19 35.9693 30.3798V35.7909C35.9688 35.8005 35.9693 35.8101 35.9693 35.8203V56.3612C35.9693 57.1169 36.5814 57.7289 37.3371 57.7289C38.0928 57.7289 38.7053 57.1169 38.7053 56.3612V49.4858C38.7053 48.2959 39.673 47.3276 40.8629 47.3276C42.0528 47.3276 43.021 48.2959 43.021 49.4858V56.859C43.021 57.6146 43.6336 58.2272 44.3888 58.2272C45.1445 58.2272 45.757 57.6146 45.757 56.859V49.4858C45.757 48.2959 46.7253 47.3276 47.9151 47.3276C49.105 47.3276 50.0727 48.2959 50.0727 49.4858V56.9513C50.0727 57.707 50.6853 58.3196 51.441 58.3196C52.1967 58.3196 52.8087 57.707 52.8087 56.9513V52.2901C52.8087 51.1002 53.777 50.132 54.9669 50.132C56.1567 50.132 57.125 51.1002 57.125 52.2901V68.6312C57.125 69.3869 57.737 69.9994 58.4927 69.9994C59.2484 69.9994 59.861 69.3869 59.861 68.6312V52.2901C59.861 49.5915 57.6654 47.396 54.9669 47.396ZM47.1082 8.77241C46.148 7.81218 46.148 6.25006 47.1082 5.28982C47.5883 4.8097 48.2185 4.56991 48.8492 4.56991C49.4799 4.56991 50.1107 4.8097 50.5908 5.28982C51.5505 6.25006 51.5505 7.81218 50.5908 8.77241C49.6305 9.73211 48.0679 9.73211 47.1082 8.77241ZM22.6483 23.7196C22.6483 17.5294 27.6845 12.4932 33.8748 12.4932C40.0645 12.4932 45.1007 17.5294 45.1007 23.7196C45.1007 28.0786 42.5463 32.0173 38.7053 33.855V30.3798C38.7053 29.6119 38.5269 28.8845 38.2097 28.2367C39.4231 27.0671 40.1403 25.4366 40.1403 23.7196C40.1403 20.2643 37.3296 17.4535 33.8748 17.4535C30.4194 17.4535 27.6087 20.2643 27.6087 23.7196C27.6087 25.3864 28.2875 26.988 29.4544 28.1555C29.112 28.8231 28.9171 29.5793 28.9171 30.3798V33.7973C25.1077 31.9356 22.6483 28.0749 22.6483 23.7196ZM31.3289 26.1645C30.6982 25.5119 30.3446 24.6473 30.3446 23.7196C30.3446 21.773 31.9281 20.1895 33.8742 20.1895C35.8209 20.1895 37.4044 21.773 37.4044 23.7196C37.4044 24.6606 37.022 25.5568 36.3715 26.2115C35.6259 25.7517 34.749 25.4863 33.8112 25.4863C32.9055 25.4863 32.0574 25.7341 31.3289 26.1645Z" fill="white"/>
<path d="M38.7186 3.22359C39.0786 3.22359 39.4316 3.07726 39.6858 2.82251C39.9406 2.5683 40.0869 2.21529 40.0869 1.85533C40.0869 1.49591 39.9406 1.1429 39.6858 0.888153C39.4316 0.633942 39.0786 0.48761 38.7186 0.48761C38.3592 0.48761 38.0062 0.633942 37.752 0.888153C37.4973 1.1429 37.3509 1.49591 37.3509 1.85533C37.3509 2.21529 37.4973 2.5683 37.752 2.82251C38.0062 3.07726 38.3592 3.22359 38.7186 3.22359Z" fill="black"/>
</svg>
