<svg width="50" height="50" viewBox="0 0 50 50" fill="none" xmlns="http://www.w3.org/2000/svg">
<path d="M12.4998 43.3343H11.5525C12.1704 42.3883 12.4995 41.2828 12.4998 40.1528V38.0476C12.5 37.5873 12.4235 37.1301 12.2735 36.695L9.69722 29.2109C9.58604 28.7991 9.3719 28.4224 9.07496 28.1163C8.77802 27.8101 8.40805 27.5846 7.99988 27.4609L9.5788 21.5926C9.71596 21.0937 9.69325 20.5644 9.51387 20.0791C9.33449 19.5938 9.00746 19.177 8.57882 18.8873C8.35258 18.7242 8.0984 18.6038 7.82883 18.5321C7.61254 18.469 7.38835 18.4371 7.16305 18.4373C6.61663 18.433 6.08417 18.6098 5.64897 18.9403C5.21377 19.2707 4.90038 19.7361 4.75782 20.2636L0.310522 33.9161C0.0866577 34.6116 0.047661 35.3535 0.197365 36.0686L1.48156 41.0686C1.60456 41.5421 1.66647 42.0294 1.66576 42.5186V43.3422H0.834198C0.614559 43.3415 0.40356 43.4277 0.247268 43.5821C0.0909756 43.7364 0.00208406 43.9463 0 44.1659V49.1658C0 49.3871 0.0878885 49.5992 0.244331 49.7557C0.400773 49.9121 0.612955 50 0.834198 50H12.4998C12.7211 50 12.9332 49.9121 13.0897 49.7557C13.2461 49.5992 13.334 49.3871 13.334 49.1658V44.1659C13.334 44.0565 13.3124 43.9481 13.2705 43.8471C13.2285 43.746 13.167 43.6542 13.0895 43.577C13.012 43.4997 12.92 43.4385 12.8188 43.3969C12.7177 43.3552 12.6092 43.334 12.4998 43.3343ZM3.09732 40.6423L1.82103 35.6923C1.73722 35.2719 1.76259 34.837 1.89471 34.4292L6.36833 20.7162C6.42569 20.5078 6.5627 20.3303 6.74977 20.222C6.93685 20.1137 7.159 20.0833 7.36831 20.1373C7.46375 20.161 7.55332 20.204 7.63146 20.2636C7.77434 20.3592 7.88352 20.4973 7.94351 20.6583C8.00349 20.8194 8.01125 20.9953 7.96567 21.161L6.24464 27.5872C5.80824 27.783 5.43813 28.1014 5.17931 28.5036C4.9205 28.9059 4.78412 29.3746 4.78677 29.853C4.78225 30.0716 4.80973 30.2897 4.86835 30.5003L6.37622 36.1344C6.40133 36.2437 6.44819 36.3467 6.514 36.4374C6.57981 36.5281 6.66322 36.6046 6.75925 36.6624C6.85528 36.7201 6.96197 36.758 7.07294 36.7736C7.18391 36.7892 7.29689 36.7823 7.40513 36.7533C7.51338 36.7243 7.61467 36.6738 7.70296 36.6047C7.79125 36.5357 7.86473 36.4496 7.91901 36.3516C7.97329 36.2536 8.00727 36.1456 8.0189 36.0341C8.03053 35.9227 8.01959 35.81 7.98672 35.7029L6.47359 30.0477C6.45665 29.9833 6.44868 29.9169 6.4499 29.8503C6.44583 29.677 6.49725 29.5069 6.59667 29.3649C6.69609 29.2229 6.83829 29.1164 7.00253 29.0609L7.11305 29.0267C7.33107 28.9831 7.55746 29.0276 7.74282 29.1504C7.92818 29.2731 8.05748 29.4642 8.10251 29.6819L10.6972 37.2318C10.7871 37.4926 10.8333 37.7664 10.834 38.0423V40.1475C10.8337 40.9699 10.5902 41.7738 10.1341 42.458L9.55512 43.3291H3.33416V42.5054C3.33151 41.877 3.25197 41.2513 3.09732 40.6423ZM11.6656 48.3343H1.66576V45.0001H11.6656V48.3343Z" fill="#111516"/>
<path d="M36.6652 44.1658V49.1658C36.6652 49.387 36.7531 49.5992 36.9096 49.7556C37.066 49.9121 37.2782 50 37.4994 50H49.165C49.3863 50 49.5985 49.9121 49.7549 49.7556C49.9113 49.5992 49.9992 49.387 49.9992 49.1658V44.1658C49.9992 44.0564 49.9776 43.9481 49.9357 43.847C49.8937 43.7459 49.8322 43.6542 49.7547 43.5769C49.6772 43.4997 49.5853 43.4385 49.4841 43.3968C49.3829 43.3552 49.2745 43.3339 49.165 43.3343H48.3335V42.5106C48.3328 42.0205 48.3947 41.5324 48.5177 41.058L49.8019 36.0581C49.9511 35.3437 49.9121 34.6028 49.6887 33.9081L45.2414 20.2636C45.0961 19.7401 44.7821 19.2793 44.3482 18.9524C43.9143 18.6255 43.3847 18.451 42.8414 18.4557C42.6162 18.4532 42.3918 18.4843 42.1757 18.5478C41.9067 18.6212 41.6528 18.7414 41.4257 18.9031C40.9987 19.1934 40.6733 19.6102 40.4954 20.095C40.3175 20.5797 40.2958 21.108 40.4336 21.6057L41.9994 27.474C41.5912 27.5977 41.2212 27.8232 40.9243 28.1294C40.6273 28.4355 40.4132 28.8122 40.302 29.224L37.7257 36.7186C37.5759 37.1529 37.4995 37.6091 37.4994 38.0686V40.1738C37.4997 41.3038 37.8289 42.4093 38.4468 43.3553H37.4994C37.282 43.3546 37.073 43.439 36.917 43.5905C36.7611 43.742 36.6707 43.9485 36.6652 44.1658ZM46.6651 42.5106V43.3343H40.4441L39.8652 42.4632C39.409 41.779 39.1655 40.9751 39.1652 40.1527V38.0475C39.1659 37.7717 39.2121 37.4978 39.302 37.237L41.8967 29.6871C41.9418 29.4694 42.0711 29.2783 42.2564 29.1556C42.4418 29.0328 42.6682 28.9883 42.8862 29.0319C42.8993 29.0319 42.9783 29.0608 42.9967 29.0661C43.1609 29.1216 43.3031 29.2281 43.4026 29.3701C43.502 29.5121 43.5534 29.6822 43.5493 29.8555C43.5506 29.9221 43.5426 29.9885 43.5256 30.0529L42.0099 35.7054C41.9615 35.916 41.9966 36.1372 42.108 36.3223C42.2194 36.5075 42.3982 36.6422 42.6069 36.6981C42.8156 36.7541 43.0379 36.7268 43.2269 36.6222C43.416 36.5175 43.557 36.3436 43.6204 36.137L45.1283 30.5029C45.1877 30.2924 45.2161 30.0743 45.2125 29.8555C45.2147 29.3777 45.0784 28.9094 44.8202 28.5073C44.5619 28.1052 44.1927 27.7865 43.7572 27.5898L42.0388 21.1583C41.9937 20.9935 42.0012 20.8187 42.0601 20.6583C42.1191 20.4979 42.2266 20.3599 42.3678 20.2636C42.4469 20.2067 42.5363 20.1656 42.6309 20.1425C42.7351 20.1129 42.8441 20.1042 42.9517 20.1169C43.0593 20.1296 43.1633 20.1635 43.2577 20.2166C43.3521 20.2697 43.4351 20.3409 43.5018 20.4262C43.5686 20.5115 43.6178 20.6092 43.6467 20.7136L48.1203 34.4239C48.2524 34.8326 48.2778 35.2684 48.194 35.6897L46.9203 40.6369C46.7577 41.2485 46.672 41.8779 46.6651 42.5106ZM38.3336 45H48.3335V48.3342H38.3336V45Z" fill="#111516"/>
<path d="M38.6652 5.90328L25.3338 0.0691589C25.2283 0.0235363 25.1146 0 24.9996 0C24.8847 0 24.7709 0.0235363 24.6654 0.0691589L11.334 5.90328C11.1852 5.96763 11.0585 6.07423 10.9696 6.20988C10.8807 6.34553 10.8336 6.50426 10.834 6.66643V23.3346C10.8336 23.4883 10.876 23.6392 10.9564 23.7702C11.0368 23.9013 11.1521 24.0074 11.2893 24.0767L24.6207 30.8582C24.7379 30.9185 24.8678 30.95 24.9996 30.9503C25.1294 30.9497 25.2573 30.9191 25.3733 30.8608L38.7073 24.1609C38.8446 24.0922 38.9602 23.9866 39.041 23.8561C39.1219 23.7255 39.1649 23.575 39.1652 23.4214V6.66643C39.1657 6.50426 39.1185 6.34553 39.0296 6.20988C38.9408 6.07423 38.8141 5.96763 38.6652 5.90328ZM24.9996 1.74282L36.2547 6.66643L24.9996 11.5795L22.0734 10.3111L26.5259 8.36377C26.6739 8.29846 26.7996 8.19156 26.8879 8.05607C26.9762 7.92058 27.0232 7.76235 27.0232 7.60063C27.0232 7.43891 26.9762 7.28067 26.8879 7.14518C26.7996 7.00969 26.6739 6.90279 26.5259 6.83748L22.9497 5.27698C22.8446 5.23142 22.7313 5.20791 22.6168 5.20791C22.5022 5.20791 22.3889 5.23142 22.2839 5.27698L16.4234 7.83746L13.7498 6.66643L24.9996 1.74282ZM17.4997 10.1295L19.1655 10.8585V14.4742L17.4997 13.6532V10.1295ZM18.4997 8.74798L22.6128 6.95063L24.1049 7.60063L19.9997 9.4006L18.4997 8.74798ZM12.4998 7.94009L15.834 9.4006V14.1663C15.8337 14.3214 15.8766 14.4735 15.958 14.6055C16.0393 14.7375 16.1559 14.8442 16.2945 14.9137L19.626 16.5794C19.7532 16.6424 19.8943 16.6719 20.036 16.6653C20.1778 16.6587 20.3155 16.6162 20.4363 16.5417C20.5571 16.4672 20.6569 16.3633 20.7265 16.2396C20.796 16.1159 20.833 15.9766 20.8339 15.8347V11.5795L24.1654 13.0374V28.7529L12.4998 22.8215V7.94009ZM25.8338 28.7661V13.0453L37.4994 7.94009V22.8951L25.8338 28.7661Z" fill="#111516"/>
<path d="M30.4654 22.6952L27.1259 24.3715C27.0247 24.4187 26.9339 24.4857 26.8591 24.5686C26.7842 24.6515 26.7268 24.7485 26.6901 24.854C26.6535 24.9596 26.6384 25.0714 26.6458 25.1828C26.6532 25.2943 26.6829 25.4031 26.7331 25.5028C26.7833 25.6026 26.8531 25.6913 26.9382 25.7636C27.0234 25.8359 27.1222 25.8903 27.2287 25.9237C27.3353 25.9571 27.4475 25.9688 27.5587 25.958C27.6699 25.9472 27.7778 25.9142 27.8759 25.8609L31.2154 24.1847C31.406 24.0813 31.5488 23.9077 31.6136 23.7008C31.6785 23.4939 31.6602 23.2699 31.5627 23.0762C31.4652 22.8826 31.2961 22.7345 31.0912 22.6633C30.8864 22.5922 30.6619 22.6036 30.4654 22.6952Z" fill="#40C9F4"/>
<path d="M27.4996 22.6162C27.6292 22.6166 27.7571 22.5868 27.8733 22.5293L31.1653 20.8741C31.3559 20.7707 31.4988 20.5972 31.5636 20.3903C31.6285 20.1834 31.6102 19.9593 31.5127 19.7657C31.4151 19.572 31.246 19.4239 31.0412 19.3528C30.8364 19.2817 30.6119 19.2931 30.4153 19.3847L27.1233 21.0531C26.9534 21.1359 26.8167 21.2742 26.736 21.4451C26.6552 21.616 26.635 21.8094 26.6788 21.9933C26.7227 22.1772 26.8279 22.3407 26.9771 22.4568C27.1263 22.5729 27.3106 22.6347 27.4996 22.632V22.6162Z" fill="#40C9F4"/>
</svg>
