<svg width="100" height="100" viewBox="0 0 100 100" fill="none" xmlns="http://www.w3.org/2000/svg">
<g clip-path="url(#clip0_0_120)">
<path d="M99.3637 69.0895L66.5828 43.5891C62.1752 40.1686 56.2224 39.506 51.1706 41.874L47.0352 37.7378C46.726 37.4286 46.3065 37.2547 45.8693 37.2547C45.4361 37.2579 45.0214 37.4318 44.7146 37.7378L7.47941 0.511434C6.83606 -0.132718 5.79173 -0.132718 5.14758 0.511434L0.483113 5.17509C-0.161039 5.81844 -0.161039 6.86277 0.483113 7.50612L37.7095 44.7349C37.0693 45.3782 37.0693 46.4185 37.7095 47.0619L41.8457 51.1989C39.4793 56.2507 40.1411 62.2027 43.5608 66.6111L69.0611 99.3888C69.3518 99.7616 69.7882 99.991 70.2601 100.02H70.3623C70.8003 100.021 71.2198 99.8469 71.5298 99.5369L77.3586 93.7098C77.9295 93.1397 78.0044 92.2403 77.535 91.5841L71.6249 83.3107L79.9046 89.2224C80.5609 89.6902 81.4594 89.6162 82.0287 89.0461L89.0242 82.0506C89.5943 81.4813 89.6684 80.5827 89.2005 79.9265L83.2856 71.6524L91.5606 77.5641C92.216 78.0319 93.1146 77.957 93.6846 77.3869L99.5134 71.555C99.85 71.22 100.026 70.757 99.9965 70.2836C99.9675 69.8093 99.7356 69.3713 99.3604 69.0814L99.3637 69.0895ZM6.31349 4.37151L42.3731 40.4295L40.0397 42.763L3.98166 6.70334L6.31349 4.37151ZM41.2169 46.2672L45.8773 41.6067L48.288 44.0158C47.8331 44.3758 43.9859 48.223 43.6276 48.6779L41.2169 46.2672ZM92.3368 74.4287L77.1493 63.582C76.4938 63.115 75.5969 63.1898 75.0276 63.7583C74.4583 64.3276 74.3826 65.2245 74.8488 65.8808L85.6964 81.0683L80.6752 86.0894L65.4877 75.2419C64.8315 74.7757 63.9345 74.8514 63.366 75.4207C62.7968 75.9899 62.7219 76.8869 63.1889 77.5423L74.0364 92.7298L70.5137 96.2509L46.164 64.9468C42.5945 60.3491 43.0012 53.8142 47.1125 49.6932L49.3042 47.5023C53.4243 43.3894 59.9601 42.9836 64.5577 46.5538L95.8611 70.9068L92.3368 74.4287Z" fill="white"/>
<path d="M50.0578 10.8695C52.7898 10.8695 55.0049 8.65524 55.0049 5.92243C55.0049 3.19042 52.7898 0.975342 50.0578 0.975342C47.325 0.975342 45.1108 3.19042 45.1108 5.92243C45.1108 8.65524 47.325 10.8695 50.0578 10.8695ZM50.0578 4.2734C50.9685 4.2734 51.7069 5.01176 51.7069 5.92243C51.7069 6.8331 50.9685 7.57146 50.0578 7.57146C49.1472 7.57146 48.4088 6.8331 48.4088 5.92243C48.4088 5.01176 49.1472 4.2734 50.0578 4.2734Z" fill="white"/>
<path d="M89.6345 43.85C93.2772 43.85 96.2307 40.8973 96.2307 37.2538C96.2307 33.6112 93.2772 30.6577 89.6345 30.6577C85.9911 30.6577 83.0384 33.6112 83.0384 37.2538C83.0384 40.8973 85.9911 43.85 89.6345 43.85ZM89.6345 33.9558C91.4559 33.9558 92.9326 35.4325 92.9326 37.2538C92.9326 39.0752 91.4559 40.5519 89.6345 40.5519C87.8124 40.5519 86.3365 39.0752 86.3365 37.2538C86.3365 35.4325 87.8124 33.9558 89.6345 33.9558Z" fill="white"/>
<path d="M7.1831 43.8499C3.53962 43.8499 0.586987 46.8033 0.586987 50.446C0.586987 54.0894 3.53962 57.0421 7.1831 57.0421C10.8258 57.0421 13.7792 54.0894 13.7792 50.446C13.7792 46.8033 10.8258 43.8499 7.1831 43.8499ZM7.1831 53.744C5.36096 53.744 3.88505 52.2673 3.88505 50.446C3.88505 48.6246 5.36096 47.1479 7.1831 47.1479C9.00444 47.1479 10.4812 48.6246 10.4812 50.446C10.4812 52.2673 9.00444 53.744 7.1831 53.744Z" fill="white"/>
<path d="M36.8656 85.0757C34.1328 85.0757 31.9185 87.2908 31.9185 90.0228C31.9185 92.7556 34.1328 94.9699 36.8656 94.9699C39.5976 94.9699 41.8127 92.7556 41.8127 90.0228C41.8127 87.2908 39.5976 85.0757 36.8656 85.0757ZM36.8656 91.6718C35.955 91.6718 35.2166 90.9334 35.2166 90.0228C35.2166 89.1121 35.955 88.3737 36.8656 88.3737C37.7763 88.3737 38.5147 89.1121 38.5147 90.0228C38.5147 90.9334 37.7763 91.6718 36.8656 91.6718Z" fill="white"/>
</g>
<defs>
<clipPath id="clip0_0_120">
<rect width="100" height="100" fill="white"/>
</clipPath>
</defs>
</svg>
