<svg width="41" height="50" viewBox="0 0 41 50" fill="none" xmlns="http://www.w3.org/2000/svg">
<path d="M38.2639 21.5321L40.3498 19.0222C41.3348 17.8397 41.0293 15.9539 39.6677 14.8241C39.2349 14.4637 38.7218 14.2126 38.1717 14.0919C38.6348 13.4106 38.8175 12.5771 38.6819 11.7646C38.5463 10.9521 38.1028 10.223 37.4437 9.72901C36.7845 9.23498 35.9603 9.01394 35.1424 9.11182C34.3245 9.2097 33.5758 9.61898 33.0518 10.2546L32.1879 11.2844C31.9995 10.7545 31.6731 10.2844 31.2424 9.92275C30.5983 9.38573 29.7683 9.12452 28.9327 9.19584C28.846 8.7258 28.6559 8.28089 28.3763 7.89328C28.0966 7.50566 27.7343 7.18503 27.3156 6.95456C26.9453 6.75268 26.539 6.62571 26.1197 6.58091C25.7003 6.53611 25.2763 6.57436 24.8718 6.69347C24.4673 6.81258 24.0902 7.01021 23.762 7.27508C23.4339 7.53996 23.1612 7.86688 22.9594 8.23717L22.3115 9.42498C22.0222 8.94052 21.6095 8.54156 21.1155 8.26888C20.6215 7.9962 20.0639 7.85957 19.4998 7.87296C18.9357 7.88635 18.3853 8.04929 17.9048 8.34511C17.4243 8.64092 17.0309 9.05902 16.7649 9.55666L13.3938 15.7459C12.7801 15.6078 12.1448 15.5951 11.5261 15.7087C10.9074 15.8223 10.3181 16.0598 9.79349 16.4069C9.60248 16.5335 9.43829 16.6964 9.31028 16.8864C9.18228 17.0764 9.09298 17.2898 9.04748 17.5143C9.00199 17.7388 9.00119 17.9701 9.04514 18.195C9.08909 18.4198 9.17692 18.6338 9.30362 18.8247L10.6205 20.8237L10.5046 21.0396L7.95252 18.8168C7.0796 17.9362 5.8929 17.438 4.65298 17.4316C3.41306 17.4252 2.22127 17.911 1.33927 18.7826C1.01136 19.1081 0.825845 19.5503 0.823377 20.0124C0.820909 20.4745 1.00169 20.9187 1.3261 21.2477L3.21448 23.1545C5.73494 25.7013 6.1853 26.473 5.70333 29.5808L5.12392 33.0283C5.03188 32.9787 4.93092 32.9479 4.8269 32.9377C4.72287 32.9274 4.61784 32.9379 4.5179 32.9685C4.41795 32.9991 4.32508 33.0493 4.24465 33.1161C4.16422 33.1828 4.09785 33.2649 4.04936 33.3575L0.0987948 40.5949C0.0478637 40.6881 0.0158391 40.7904 0.00456069 40.896C-0.0067177 41.0015 0.00297215 41.1083 0.033074 41.2101C0.0631759 41.3119 0.113097 41.4067 0.179968 41.4892C0.246839 41.5717 0.329343 41.6401 0.422741 41.6906L15.5007 49.9025C15.6191 49.9658 15.7511 49.9992 15.8853 49.9999C15.9629 50.0004 16.0402 49.9888 16.1144 49.9657C16.3197 49.9051 16.4929 49.766 16.5964 49.5785L16.8861 49.0518L17.6525 49.6918C17.801 49.8132 17.9874 49.8785 18.1792 49.8761C18.2978 49.8765 18.4149 49.8508 18.5224 49.8007C18.6298 49.7506 18.7249 49.6775 18.8008 49.5864L24.0682 43.2497C24.2051 43.0851 24.2714 42.8731 24.2526 42.6598C24.2315 42.4476 24.1285 42.252 23.9655 42.1146L23.8917 42.054L25.2349 40.4396C26.044 40.4699 26.8493 40.314 27.5886 39.9839C28.3279 39.6537 28.9815 39.1582 29.4989 38.5354L39.802 26.1569C40.0447 25.8668 40.2276 25.5316 40.3404 25.1706C40.4531 24.8095 40.4933 24.4298 40.4588 24.0531C40.4243 23.6765 40.3157 23.3103 40.1393 22.9758C39.9628 22.6412 39.722 22.3448 39.4306 22.1037C39.0913 21.8252 38.6919 21.6295 38.2639 21.5321ZM24.379 9.00885C24.5415 8.68779 24.8087 8.43181 25.1364 8.28323C25.4642 8.13466 25.8328 8.10238 26.1814 8.19175C26.5299 8.28112 26.8375 8.48678 27.0534 8.77471C27.2692 9.06265 27.3803 9.41562 27.3682 9.77526C27.127 9.93602 26.909 10.1292 26.7204 10.3494L18.361 20.3997L18.253 20.2601L24.379 9.00885ZM18.1845 10.3257C18.3874 9.95306 18.73 9.67627 19.137 9.55625C19.544 9.43623 19.982 9.4828 20.3547 9.68571C20.7273 9.88863 21.0041 10.2313 21.1241 10.6383C21.2441 11.0452 21.1976 11.4832 20.9947 11.8559L20.9341 11.9691L17.1705 18.8695L16.2803 17.7212C15.9191 17.1782 15.4481 16.7171 14.8976 16.3674L18.1845 10.3257ZM4.36014 22.0194L2.4744 20.1126C2.45271 20.0873 2.44078 20.055 2.44078 20.0217C2.44078 19.9884 2.45271 19.9562 2.4744 19.9309C2.75653 19.6428 3.09459 19.4155 3.46779 19.2628C3.84098 19.1102 4.24145 19.0355 4.64458 19.0433C5.05725 19.0467 5.46507 19.1326 5.84408 19.2959C6.22309 19.4592 6.56565 19.6965 6.85163 19.9941L10.2122 22.9175C10.3033 22.9968 10.4111 23.0546 10.5275 23.0867C10.6439 23.1188 10.7661 23.1242 10.8849 23.1028C11.0038 23.0813 11.1163 23.0333 11.2141 22.9625C11.3119 22.8917 11.3926 22.7998 11.4501 22.6936L11.6239 22.3749C12.8223 24.3766 12.8828 25.3774 11.9847 27.8452L10.7469 31.1162C10.5828 30.9856 10.3741 30.9243 10.1655 30.9455C9.95682 30.9666 9.7647 31.0685 9.6302 31.2295L7.19665 34.1529L6.62513 33.8421L7.29936 29.8389C7.86824 26.1648 7.18348 24.8717 4.36014 22.0194ZM15.5718 48.0931L1.91079 40.6582L5.05544 34.8824C5.12146 34.9896 5.21166 35.0798 5.31881 35.1458L6.04835 35.5435L4.35487 37.5793C4.21879 37.7445 4.1535 37.9568 4.17323 38.1699C4.19296 38.383 4.29612 38.5797 4.46022 38.7171L15.6272 48.0062L15.5718 48.0931ZM18.0739 47.9193L6.11419 37.977L10.3281 32.9229C10.3753 33.0365 10.4484 33.1375 10.5415 33.2179L22.1482 42.8889C22.1754 42.9063 22.2036 42.9221 22.2325 42.9363L18.0739 47.9193ZM38.5615 25.1114L28.2611 37.4898C27.8662 37.9633 27.359 38.3303 26.7857 38.5571C26.2124 38.784 25.5914 38.8634 24.9795 38.7882C24.8454 38.7718 24.7094 38.7892 24.5838 38.8389C24.4582 38.8886 24.347 38.969 24.2605 39.0727L22.6513 41.0084L12.0611 32.2039L13.4991 28.4035C14.7686 24.9112 14.3498 23.5101 12.1322 20.1653L10.6521 17.9292C10.6364 17.9 10.6312 17.8662 10.6375 17.8336C10.6437 17.801 10.661 17.7716 10.6863 17.7501C11.021 17.5263 11.3969 17.3713 11.7921 17.294C12.1872 17.2166 12.5938 17.2186 12.9882 17.2998C13.3922 17.383 13.7755 17.5461 14.1156 17.7795C14.4557 18.0128 14.7457 18.3118 14.9687 18.6588L16.6569 20.8342L17.6973 22.1748C17.7715 22.2701 17.8661 22.3476 17.974 22.4018C18.082 22.4561 18.2007 22.4855 18.3214 22.4882C18.5633 22.4781 18.7913 22.3731 18.9562 22.1958L27.9608 11.3739C28.2313 11.0486 28.6198 10.8439 29.041 10.8049C29.4623 10.7659 29.8818 10.8957 30.2074 11.1659C30.5321 11.4367 30.7363 11.8251 30.7753 12.2462C30.8143 12.6672 30.6849 13.0866 30.4154 13.4124L25.8065 18.9564C25.6681 19.1216 25.6011 19.3349 25.6201 19.5496C25.6392 19.7642 25.7427 19.9624 25.9079 20.1007C26.073 20.239 26.2864 20.306 26.501 20.287C26.7156 20.268 26.9139 20.1645 27.0522 19.9993L31.6586 14.4448L34.2923 11.2844C34.4946 11.0424 34.764 10.8656 35.0665 10.7764C35.3691 10.6871 35.6913 10.6894 35.9926 10.7829C36.2938 10.8763 36.5607 11.0569 36.7596 11.3017C36.9585 11.5465 37.0806 11.8447 37.1103 12.1588C37.1302 12.3676 37.1084 12.5784 37.046 12.7787C36.9836 12.979 36.8819 13.1649 36.7469 13.3255L35.4801 14.8452C35.459 14.8715 35.43 14.8899 35.4063 14.9163C35.3826 14.9426 35.3905 14.9505 35.3774 14.9689L27.7396 24.1527C27.6027 24.3172 27.5367 24.5293 27.5562 24.7425C27.5758 24.9556 27.6791 25.1522 27.8436 25.2891C28.0081 25.426 28.2203 25.492 28.4334 25.4725C28.6465 25.453 28.8432 25.3496 28.9801 25.1851L36.7127 15.8934C37.1446 15.4667 37.9979 15.5326 38.6353 16.0619C39.2726 16.5913 39.5176 17.4999 39.1093 17.9898L33.4047 24.8375L33.352 24.9007L31.5927 27.0076C31.4558 27.1721 31.3899 27.3843 31.4094 27.5974C31.4289 27.8105 31.5322 28.0072 31.6967 28.1441C31.8612 28.281 32.0734 28.3469 32.2865 28.3274C32.4996 28.3079 32.6963 28.2045 32.8332 28.04L34.5872 25.9331L36.631 23.4943C36.8437 23.2386 37.1492 23.0779 37.4804 23.0475C37.8116 23.0172 38.1413 23.1196 38.3969 23.3323C38.6526 23.545 38.8133 23.8505 38.8436 24.1817C38.874 24.5129 38.7716 24.8425 38.5589 25.0982L38.5615 25.1114Z" fill="#111516"/>
<path d="M10.6573 36.1809C10.3865 36.2055 10.129 36.3099 9.91746 36.4809C9.70593 36.6519 9.54987 36.8817 9.46901 37.1414C9.38816 37.4011 9.38615 37.6789 9.46324 37.9398C9.54033 38.2006 9.69305 38.4327 9.90208 38.6067C10.1111 38.7807 10.3671 38.8888 10.6376 38.9173C10.908 38.9458 11.1809 38.8935 11.4216 38.7669C11.6623 38.6403 11.8601 38.4451 11.9899 38.2061C12.1196 37.967 12.1756 37.6949 12.1507 37.4241C12.1166 37.0616 11.9404 36.7273 11.6605 36.4943C11.3807 36.2614 11.02 36.1487 10.6573 36.1809Z" fill="#40C9F4"/>
<path d="M9.09557 7.59726L14.0048 9.20645C14.0895 9.23568 14.1786 9.24994 14.2682 9.24859C14.4635 9.25416 14.6542 9.18883 14.805 9.0647C14.9558 8.94056 15.0567 8.766 15.0888 8.5733C15.1209 8.38059 15.0821 8.18278 14.9797 8.01643C14.8773 7.85008 14.7181 7.72644 14.5316 7.66837L9.59861 6.06444C9.40009 6.01414 9.18988 6.04105 9.01043 6.13974C8.83098 6.23842 8.69566 6.40152 8.6318 6.5961C8.56795 6.79069 8.58031 7.00225 8.66639 7.18808C8.75247 7.3739 8.90585 7.52014 9.09557 7.59726Z" fill="#40C9F4"/>
<path d="M14.7238 6.20926C14.7973 6.32171 14.8977 6.41407 15.0158 6.47799C15.134 6.54191 15.2663 6.57537 15.4006 6.57535C15.5576 6.57449 15.7112 6.5288 15.8431 6.44366C15.9317 6.3856 16.008 6.31065 16.0676 6.22309C16.1272 6.13553 16.1689 6.03707 16.1905 5.93336C16.212 5.82965 16.2129 5.72271 16.193 5.61866C16.1732 5.51461 16.133 5.41549 16.0749 5.32697L13.8678 1.94792C13.8124 1.85339 13.7384 1.77111 13.6502 1.70608C13.562 1.64104 13.4616 1.5946 13.3549 1.56958C13.2482 1.54456 13.1376 1.54148 13.0297 1.56053C12.9218 1.57958 12.8189 1.62035 12.7272 1.68038C12.6356 1.74042 12.5571 1.81845 12.4965 1.90974C12.4359 2.00104 12.3945 2.10369 12.3749 2.21147C12.3552 2.31925 12.3576 2.42991 12.382 2.53672C12.4064 2.64354 12.4522 2.74429 12.5167 2.83284L14.7238 6.20926Z" fill="#40C9F4"/>
<path d="M18.145 6.58329C18.1996 6.59462 18.2551 6.60079 18.3109 6.60173C18.4962 6.60096 18.6756 6.53678 18.8194 6.41986C18.9631 6.30295 19.0625 6.14035 19.101 5.9591L20.1545 0.931346C20.1859 0.726933 20.1378 0.518256 20.0201 0.348233C19.9023 0.178209 19.7239 0.0597654 19.5215 0.0172621C19.3191 -0.0252412 19.1081 0.0114273 18.9319 0.119726C18.7557 0.228024 18.6278 0.399719 18.5743 0.599498L17.5208 5.62725C17.4988 5.73102 17.4975 5.83812 17.517 5.94239C17.5365 6.04665 17.5764 6.14605 17.6344 6.23487C17.6924 6.32369 17.7673 6.40019 17.855 6.45998C17.9426 6.51977 18.0411 6.56167 18.145 6.58329Z" fill="#40C9F4"/>
</svg>
