<svg width="182" height="50" viewBox="0 0 182 50" fill="none" xmlns="http://www.w3.org/2000/svg">
<path d="M75.7778 9.80132C75.884 9.79521 75.9906 9.79986 76.0959 9.81522C76.2173 9.83075 76.3297 9.88754 76.4141 9.97603C76.5024 10.0581 76.5594 10.1683 76.5751 10.2877C76.5926 10.4027 76.5979 10.5191 76.591 10.6352V24.1094H77.7841V10.7443C77.7829 10.5704 77.771 10.3967 77.7483 10.2242C77.729 10.0442 77.6869 9.86745 77.623 9.69809C77.5495 9.5167 77.4429 9.35045 77.3089 9.20771C77.1906 9.08053 77.0488 8.97739 76.8913 8.90396C76.7507 8.83895 76.6013 8.79481 76.4479 8.77293C76.3035 8.75386 76.158 8.74524 76.0124 8.74712H67.3587C67.2144 8.74507 67.0702 8.75369 66.9272 8.77293C66.7723 8.79388 66.6215 8.83805 66.4798 8.90396C66.322 8.97686 66.1801 9.08007 66.0622 9.20771C65.9273 9.34978 65.8206 9.5162 65.748 9.69809C65.6818 9.86698 65.6384 10.0439 65.6188 10.2242C65.6007 10.397 65.5934 10.5707 65.5969 10.7443V24.1094H66.79V10.6352C66.7854 10.5192 66.7901 10.403 66.8039 10.2877C66.8222 10.1691 66.8787 10.0597 66.965 9.97603C67.0504 9.88779 67.1632 9.83109 67.2851 9.81522C67.3904 9.79982 67.497 9.79517 67.6032 9.80132H75.7778Z" fill="#5D5D5D"/>
<path d="M78.657 24.1095H79.9356L85.7339 10.125C85.7597 10.0555 85.7895 9.98401 85.8174 9.90658C85.8458 9.83101 85.8914 9.76305 85.9506 9.70805C86.0207 9.65315 86.1071 9.6233 86.1962 9.6233C86.2852 9.6233 86.3717 9.65315 86.4418 9.70805C86.4997 9.76371 86.5445 9.83152 86.573 9.90658C86.6028 9.98401 86.6326 10.0555 86.6565 10.125L92.4628 24.1095H93.7374L87.7561 9.91055C87.6374 9.60262 87.4775 9.31213 87.2809 9.04694C87.1498 8.87231 86.9749 8.73534 86.7738 8.64988C86.3969 8.53337 85.9935 8.53337 85.6165 8.64988C85.4164 8.73596 85.2422 8.87285 85.1115 9.04694C84.9141 9.31164 84.7542 9.60225 84.6362 9.91055L78.657 24.1095Z" fill="#5D5D5D"/>
<path d="M93.7354 24.1094H95.01L96.8772 19.6325H105.801L107.67 24.1094H108.945L103.053 10.1964C102.943 9.92114 102.81 9.65553 102.656 9.40225C102.516 9.16998 102.333 8.96754 102.115 8.80666C101.888 8.64495 101.616 8.56069 101.337 8.56644C101.061 8.56132 100.789 8.64328 100.562 8.8007C100.342 8.96013 100.157 9.16283 100.019 9.3963C99.8639 9.64919 99.7308 9.91486 99.6212 10.1904L93.7354 24.1094ZM100.695 10.5458C100.739 10.4366 100.79 10.3155 100.848 10.1805C100.904 10.0543 100.975 9.93557 101.061 9.82711C101.088 9.7787 101.127 9.73835 101.175 9.71025C101.222 9.68216 101.277 9.66734 101.332 9.66734C101.388 9.66734 101.442 9.68216 101.49 9.71025C101.538 9.73835 101.577 9.7787 101.604 9.82711C101.688 9.93613 101.759 10.0548 101.814 10.1805C101.874 10.3155 101.926 10.4366 101.97 10.5458L105.332 18.5784H97.3385L100.703 10.5458H100.695Z" fill="#5D5D5D"/>
<path d="M121.892 24.1096V23.0554H115.926C115.364 23.0589 114.802 22.9922 114.256 22.8568C113.828 22.7544 113.415 22.5948 113.029 22.3824C112.723 22.2148 112.439 22.0108 112.182 21.7748C111.989 21.5938 111.815 21.3943 111.661 21.1793C111.361 20.7567 111.133 20.287 110.987 19.7895C110.847 19.2913 110.757 18.7807 110.717 18.2648C110.673 17.7347 110.655 17.2047 110.659 16.6766C110.659 16.0989 110.673 15.5072 110.721 14.8997C110.766 14.3003 110.872 13.7069 111.037 13.1288C111.194 12.5716 111.453 12.0485 111.802 11.5862C112.099 11.2015 112.462 10.8722 112.874 10.6134C113.25 10.381 113.656 10.2013 114.081 10.0794C114.468 9.96812 114.864 9.89236 115.264 9.85307C115.595 9.82169 115.927 9.80711 116.258 9.80939H121.643V8.74725H115.757C115.144 8.74293 114.533 8.81563 113.938 8.96365C113.462 9.07901 113.001 9.25097 112.566 9.47586C112.226 9.64713 111.904 9.85268 111.606 10.0893C111.4 10.2493 111.206 10.4245 111.027 10.6134C110.663 11.0054 110.364 11.4523 110.14 11.9376C109.918 12.4203 109.75 12.9264 109.641 13.4465C109.531 13.9746 109.459 14.5101 109.426 15.0486C109.392 15.5906 109.375 16.1247 109.378 16.6369C109.37 17.421 109.42 18.2047 109.528 18.9815C109.62 19.6321 109.799 20.2673 110.063 20.8695C110.312 21.4263 110.661 21.9329 111.093 22.3645C111.295 22.5676 111.513 22.7548 111.745 22.9243C112.046 23.1427 112.368 23.3316 112.705 23.4882C113.123 23.6787 113.559 23.8244 114.008 23.923C114.559 24.0429 115.122 24.1021 115.686 24.0996L121.892 24.1096Z" fill="#5D5D5D"/>
<path d="M129.957 24.1096V9.80151H136.398V8.74731H122.329V9.80151H128.77V24.1096H129.957Z" fill="#5D5D5D"/>
<path d="M150.42 24.1096V10.4805C150.423 10.3632 150.419 10.2459 150.408 10.1291C150.399 9.96445 150.375 9.80099 150.337 9.64068C150.294 9.46138 150.224 9.28987 150.128 9.13244C150.035 8.96864 149.902 8.83178 149.74 8.73538C149.544 8.62385 149.321 8.56822 149.096 8.57457C148.817 8.56525 148.542 8.63403 148.3 8.7731C148.074 8.92275 147.879 9.11491 147.726 9.33891C147.553 9.58509 147.37 9.867 147.169 10.1926L139.366 22.5908C139.328 22.6464 139.293 22.704 139.253 22.7735C139.215 22.8366 139.171 22.8958 139.122 22.9502C139.076 22.9972 139.014 23.0255 138.949 23.0296C138.907 23.0333 138.864 23.0256 138.826 23.0075C138.788 22.9893 138.756 22.9613 138.732 22.9264C138.695 22.849 138.678 22.7638 138.682 22.6782C138.682 22.5789 138.682 22.4797 138.682 22.3705V8.74729H137.489V22.5075C137.488 22.6833 137.498 22.859 137.519 23.0336C137.542 23.2387 137.595 23.4393 137.676 23.6292C137.762 23.8201 137.9 23.9831 138.074 24.0997C138.288 24.2378 138.54 24.307 138.796 24.2982C139.066 24.304 139.333 24.2353 139.567 24.0997C139.774 23.9724 139.954 23.8058 140.096 23.6093C140.245 23.4108 140.388 23.1884 140.531 22.9581L148.465 10.4705C148.517 10.3792 148.573 10.2839 148.634 10.1886C148.687 10.0992 148.75 10.0159 148.821 9.94046C148.845 9.91016 148.876 9.88516 148.91 9.86705C148.944 9.84894 148.982 9.83811 149.02 9.83524C149.051 9.83454 149.082 9.8423 149.109 9.85769C149.136 9.87308 149.158 9.89552 149.173 9.92259C149.208 9.98333 149.228 10.0513 149.231 10.1211C149.236 10.1746 149.236 10.2285 149.231 10.2819V24.1295L150.42 24.1096Z" fill="#5D5D5D"/>
<path d="M153.508 24.1096H154.701V8.74731H153.508V24.1096ZM166.387 24.1096L157.871 17.57C157.706 17.445 157.535 17.31 157.358 17.173C157.195 17.0383 157.048 16.8866 156.918 16.7203C156.802 16.5857 156.732 16.4172 156.719 16.2399C156.726 16.1188 156.764 16.0016 156.831 15.9004C156.907 15.7871 156.997 15.6832 157.097 15.5907C157.205 15.4914 157.31 15.4041 157.415 15.3227L157.688 15.1241L165.556 8.75923H163.848L156.64 14.5404C156.458 14.6844 156.288 14.8424 156.131 15.0129C155.967 15.1861 155.826 15.3804 155.713 15.5907C155.607 15.7795 155.548 15.9914 155.542 16.2081C155.549 16.4335 155.607 16.6543 155.713 16.8533C155.84 17.0947 155.998 17.3183 156.183 17.5184C156.397 17.7543 156.634 17.9697 156.888 18.1616L164.604 24.1176L166.387 24.1096Z" fill="#5D5D5D"/>
<path d="M165.938 24.1094H167.213L169.08 19.6325H178.004L179.873 24.1094H181.148L175.258 10.1964C175.146 9.9219 175.013 9.65641 174.86 9.40225C174.72 9.17032 174.535 8.968 174.317 8.80666C174.091 8.64495 173.818 8.56069 173.54 8.56644C173.263 8.56185 172.992 8.64377 172.764 8.8007C172.545 8.96075 172.36 9.16332 172.221 9.3963C172.067 9.64962 171.934 9.91523 171.824 10.1904L165.934 24.1035L165.938 24.1094ZM172.898 10.5458C172.941 10.4366 172.993 10.3155 173.051 10.1805C173.108 10.0551 173.179 9.93653 173.263 9.82711C173.29 9.7787 173.33 9.73835 173.377 9.71025C173.425 9.68216 173.479 9.66734 173.535 9.66734C173.59 9.66734 173.645 9.68216 173.692 9.71025C173.74 9.73835 173.779 9.7787 173.806 9.82711C173.89 9.93653 173.962 10.0551 174.019 10.1805C174.077 10.3155 174.128 10.4366 174.172 10.5458L177.535 18.5784H169.543L172.905 10.5458H172.898Z" fill="#5D5D5D"/>
<path d="M71.8624 31.483C71.4648 31.483 71.0512 31.483 70.6038 31.5168C70.1496 31.5444 69.6982 31.6067 69.2536 31.7034C68.7923 31.8005 68.3444 31.9525 67.9194 32.156C67.4786 32.3728 67.0758 32.659 66.7263 33.0038C66.3455 33.3901 66.0317 33.8369 65.7977 34.326C65.5747 34.8 65.4079 35.2984 65.3006 35.811C65.1997 36.3041 65.1332 36.8036 65.1017 37.3059C65.0739 37.793 65.062 38.241 65.0659 38.65C65.0659 39.0609 65.0659 39.5076 65.1017 39.996C65.1335 40.497 65.1999 40.9952 65.3006 41.487C65.4075 42.001 65.5744 42.5007 65.7977 42.976C66.0318 43.4644 66.3456 43.9106 66.7263 44.2962C67.0742 44.6417 67.4774 44.9269 67.9194 45.14C68.3439 45.3462 68.7919 45.5002 69.2536 45.5986C69.6985 45.6929 70.1498 45.754 70.6038 45.7812C71.0512 45.809 71.4687 45.8209 71.8624 45.8189C72.2562 45.8169 72.6777 45.8189 73.1231 45.7812C73.5784 45.7535 74.031 45.6924 74.4773 45.5986C74.9374 45.4993 75.384 45.3453 75.8075 45.14C76.2498 44.9275 76.6531 44.6423 77.0006 44.2962C77.3826 43.9116 77.6966 43.4652 77.9292 42.976C78.154 42.5011 78.3216 42.0013 78.4283 41.487C78.5289 40.9952 78.5954 40.497 78.6272 39.996C78.653 39.5076 78.6669 39.0609 78.6629 38.65C78.659 38.239 78.663 37.7923 78.6272 37.3059C78.5957 36.8036 78.5292 36.3041 78.4283 35.811C78.3212 35.2981 78.1537 34.7996 77.9292 34.326C77.6966 33.8361 77.3826 33.3891 77.0006 33.0038C76.6517 32.6583 76.2487 32.372 75.8075 32.156C75.3835 31.9533 74.937 31.8014 74.4773 31.7034C74.0312 31.6073 73.5786 31.5449 73.1231 31.5168C72.6777 31.489 72.2582 31.479 71.8624 31.483ZM66.2272 38.65C66.2272 38.243 66.2272 37.8221 66.251 37.3893C66.2712 36.956 66.3184 36.5243 66.3922 36.0969C66.467 35.6747 66.5877 35.262 66.7521 34.866C66.9179 34.4716 67.1469 34.1068 67.4302 33.786C67.7171 33.4661 68.0609 33.2022 68.4443 33.0077C68.8082 32.8253 69.1946 32.6917 69.5936 32.6107C69.9822 32.5311 70.3765 32.482 70.7728 32.4638C71.1605 32.4479 71.5244 32.4399 71.8624 32.4439C72.2005 32.4479 72.5644 32.4439 72.9521 32.4638C73.3491 32.482 73.744 32.5311 74.1333 32.6107C74.5328 32.692 74.9199 32.8255 75.2846 33.0077C75.6664 33.2029 76.0088 33.4667 76.2947 33.786C76.5793 34.1058 76.8085 34.4708 76.9728 34.866C77.1379 35.2619 77.2592 35.6747 77.3347 36.0969C77.4079 36.5244 77.4544 36.956 77.4739 37.3893C77.4937 37.8221 77.5017 38.2423 77.4977 38.65C77.4937 39.0576 77.4858 39.4785 77.4739 39.9126C77.4544 40.3453 77.4079 40.7762 77.3347 41.2031C77.2592 41.6253 77.1379 42.038 76.9728 42.434C76.8085 42.8298 76.5794 43.1954 76.2947 43.516C76.0076 43.8329 75.6654 44.0952 75.2846 44.2902C74.9206 44.4741 74.5333 44.6077 74.1333 44.6873C73.744 44.7675 73.3491 44.8173 72.9521 44.8362C72.5644 44.8521 72.2045 44.858 71.8624 44.8561C71.5204 44.8541 71.1605 44.8561 70.7728 44.8362C70.3764 44.8173 69.9822 44.7675 69.5936 44.6873C69.1942 44.608 68.8074 44.4744 68.4443 44.2902C68.0619 44.0958 67.7183 43.8335 67.4302 43.516C67.1469 43.1944 66.9179 42.829 66.7521 42.434C66.5877 42.038 66.467 41.6252 66.3922 41.2031C66.3184 40.7763 66.2712 40.3453 66.251 39.9126C66.2351 39.4779 66.2252 39.057 66.2272 38.65Z" fill="#5D5D5D"/>
<path d="M81.067 45.6623H82.1507V31.646H81.067V45.6623ZM92.8187 45.6623L85.0638 39.7064C84.9147 39.5932 84.7576 39.4681 84.5965 39.3351C84.4491 39.2125 84.3158 39.074 84.1988 38.9222C84.0965 38.7976 84.036 38.6441 84.0258 38.4834C84.031 38.3732 84.0653 38.2664 84.1252 38.1737C84.196 38.0703 84.278 37.9751 84.3698 37.8898C84.4673 37.8005 84.5687 37.721 84.6601 37.6476L84.9087 37.463L92.087 31.6559H90.5221L83.9344 36.9269C83.7683 37.0576 83.6134 37.2017 83.471 37.3577C83.3217 37.516 83.1934 37.6928 83.0893 37.8838C82.993 38.0568 82.9392 38.25 82.9322 38.4477C82.9379 38.6556 82.9916 38.8595 83.0893 39.0433C83.2039 39.2639 83.3477 39.4683 83.5168 39.6508C83.711 39.8682 83.9247 40.0675 84.1551 40.2464L91.1942 45.6623H92.8187Z" fill="#5D5D5D"/>
<path d="M99.2235 31.4829C98.8258 31.4829 98.4122 31.4829 97.9648 31.5167C97.5107 31.5442 97.0593 31.6066 96.6147 31.7033C96.1534 31.8004 95.7055 31.9524 95.2804 32.1559C94.8397 32.3727 94.4369 32.6589 94.0874 33.0037C93.7066 33.39 93.3928 33.8368 93.1588 34.3259C92.9358 34.7999 92.7689 35.2983 92.6617 35.8109C92.5608 36.304 92.4943 36.8035 92.4628 37.3058C92.435 37.7929 92.4224 38.2409 92.425 38.6499C92.425 39.0608 92.435 39.5075 92.4628 39.9959C92.4946 40.4969 92.561 40.9951 92.6617 41.4869C92.7686 42.0009 92.9355 42.5006 93.1588 42.9759C93.3929 43.4643 93.7067 43.9105 94.0874 44.2961C94.4353 44.6416 94.8385 44.9268 95.2804 45.1398C95.7049 45.3461 96.153 45.5001 96.6147 45.5985C97.0595 45.6928 97.5109 45.7539 97.9648 45.7811C98.4122 45.8089 98.8298 45.8208 99.2235 45.8188C99.6172 45.8168 100.039 45.8188 100.484 45.7811C100.939 45.7534 101.392 45.6923 101.838 45.5985C102.299 45.4992 102.745 45.3452 103.169 45.1398C103.611 44.9274 104.014 44.6422 104.362 44.2961C104.744 43.9115 105.058 43.4651 105.29 42.9759C105.513 42.5027 105.679 42.0049 105.785 41.4928C105.885 41.0009 105.951 40.5027 105.984 40.0019C106.01 39.5135 106.024 39.0668 106.02 38.6558C106.016 38.2449 106.02 37.7982 105.984 37.3118C105.952 36.8096 105.885 36.3101 105.785 35.8168C105.678 35.3039 105.511 34.8054 105.286 34.3318C105.054 33.842 104.74 33.3949 104.358 33.0096C104.009 32.6642 103.606 32.3779 103.165 32.1619C102.741 31.9592 102.294 31.8073 101.834 31.7092C101.388 31.6131 100.936 31.5507 100.48 31.5226C100.035 31.4948 99.6152 31.4849 99.2195 31.4889L99.2235 31.4829ZM93.5883 38.6499C93.5883 38.2429 93.5883 37.822 93.6121 37.3892C93.6323 36.9559 93.6794 36.5242 93.7533 36.0968C93.8281 35.6746 93.9487 35.2619 94.1132 34.8659C94.279 34.4715 94.508 34.1067 94.7913 33.7859C95.0777 33.4656 95.4217 33.2016 95.8054 33.0076C96.1692 32.8251 96.5557 32.6916 96.9547 32.6106C97.3433 32.531 97.7376 32.4819 98.1339 32.4637C98.5216 32.4478 98.8855 32.4398 99.2235 32.4438C99.5616 32.4478 99.9254 32.4438 100.313 32.4637C100.71 32.482 101.105 32.5311 101.494 32.6106C101.894 32.6919 102.281 32.8254 102.646 33.0076C103.027 33.2028 103.37 33.4666 103.656 33.7859C103.94 34.1057 104.17 34.4707 104.334 34.8659C104.499 35.2618 104.62 35.6745 104.696 36.0968C104.769 36.5243 104.815 36.9559 104.835 37.3892C104.855 37.822 104.863 38.2422 104.859 38.6499C104.855 39.0575 104.847 39.4784 104.835 39.9125C104.815 40.3451 104.769 40.7761 104.696 41.203C104.62 41.6252 104.499 42.0379 104.334 42.4339C104.17 42.8296 103.94 43.1953 103.656 43.5159C103.369 43.8328 103.026 44.0951 102.646 44.2901C102.282 44.474 101.894 44.6076 101.494 44.6872C101.105 44.7673 100.71 44.8171 100.313 44.8361C99.9254 44.852 99.5655 44.8579 99.2235 44.8559C98.8815 44.854 98.5216 44.8559 98.1339 44.8361C97.7375 44.8172 97.3433 44.7674 96.9547 44.6872C96.5552 44.6079 96.1685 44.4743 95.8054 44.2901C95.4227 44.0963 95.0789 43.8338 94.7913 43.5159C94.508 43.1943 94.2789 42.8289 94.1132 42.4339C93.9487 42.0379 93.8281 41.6251 93.7533 41.203C93.6794 40.7762 93.6323 40.3452 93.6121 39.9125C93.5962 39.4777 93.5863 39.0569 93.5883 38.6499Z" fill="#5D5D5D"/>
<path d="M119.691 31.6418H118.607V38.0504H109.504V31.6418H108.42V45.6581H109.504V39.0113H118.607V45.6581H119.691V31.6418Z" fill="#5D5D5D"/>
<path d="M0 0H32.8392C37.417 0.00787349 41.805 1.82701 45.042 5.05888C48.279 8.29075 50.101 12.6719 50.1089 17.2424V37.8638H37.9535V17.2424C37.9457 15.8907 37.4043 14.5967 36.4468 13.6411C35.4893 12.6855 34.193 12.1455 32.8392 12.1382H0V0Z" fill="#898989"/>
<path d="M50.1089 50H17.1961C12.896 49.9904 8.75343 48.3834 5.57478 45.492C2.39613 42.6006 0.408909 38.6316 0 34.3578L0 12.1382H12.0818V32.7576C12.0901 34.1093 12.6317 35.4032 13.589 36.359C14.5463 37.3148 15.8423 37.8555 17.1961 37.8638H50.1089V50Z" fill="#33C5F3"/>
</svg>
