<svg width="97" height="50" viewBox="0 0 97 50" fill="none" xmlns="http://www.w3.org/2000/svg">
<path d="M71.875 0C65.247 0.00785676 58.8927 2.6443 54.206 7.33101C49.5193 12.0177 46.8829 18.372 46.875 25V35.9375H3.125V31.25C3.125 30.8356 2.96038 30.4382 2.66735 30.1451C2.37433 29.8521 1.9769 29.6875 1.5625 29.6875C1.1481 29.6875 0.750671 29.8521 0.457646 30.1451C0.16462 30.4382 0 30.8356 0 31.25V48.4375C0 48.8519 0.16462 49.2493 0.457646 49.5424C0.750671 49.8354 1.1481 50 1.5625 50H71.875C78.5054 50 84.8643 47.3661 89.5527 42.6777C94.2411 37.9893 96.875 31.6304 96.875 25C96.875 18.3696 94.2411 12.0107 89.5527 7.32233C84.8643 2.63392 78.5054 0 71.875 0ZM3.125 39.0625H7.8125V42.1875C7.8125 42.6019 7.97712 42.9993 8.27015 43.2924C8.56317 43.5854 8.9606 43.75 9.375 43.75C9.7894 43.75 10.1868 43.5854 10.4799 43.2924C10.7729 42.9993 10.9375 42.6019 10.9375 42.1875V39.0625H15.625V40.625C15.625 41.0394 15.7896 41.4368 16.0826 41.7299C16.3757 42.0229 16.7731 42.1875 17.1875 42.1875C17.6019 42.1875 17.9993 42.0229 18.2924 41.7299C18.5854 41.4368 18.75 41.0394 18.75 40.625V39.0625H23.4375V42.1875C23.4375 42.6019 23.6021 42.9993 23.8951 43.2924C24.1882 43.5854 24.5856 43.75 25 43.75C25.4144 43.75 25.8118 43.5854 26.1049 43.2924C26.3979 42.9993 26.5625 42.6019 26.5625 42.1875V39.0625H31.25V40.625C31.25 41.0394 31.4146 41.4368 31.7076 41.7299C32.0007 42.0229 32.3981 42.1875 32.8125 42.1875C33.2269 42.1875 33.6243 42.0229 33.9174 41.7299C34.2104 41.4368 34.375 41.0394 34.375 40.625V39.0625H39.0625V42.1875C39.0625 42.6019 39.2271 42.9993 39.5201 43.2924C39.8132 43.5854 40.2106 43.75 40.625 43.75C41.0394 43.75 41.4368 43.5854 41.7299 43.2924C42.0229 42.9993 42.1875 42.6019 42.1875 42.1875V39.0625H46.875V46.875H3.125V39.0625ZM71.875 46.875H50V25C50 20.6735 51.2829 16.4442 53.6866 12.8469C56.0903 9.24958 59.5067 6.4458 63.5038 4.79014C67.5009 3.13447 71.8993 2.70127 76.1426 3.54532C80.3859 4.38937 84.2837 6.47277 87.343 9.53204C90.4022 12.5913 92.4856 16.4891 93.3297 20.7324C94.1737 24.9757 93.7405 29.3741 92.0849 33.3712C90.4292 37.3683 87.6254 40.7847 84.0281 43.1884C80.4308 45.5921 76.2015 46.875 71.875 46.875Z" fill="white"/>
<path d="M71.875 12.5C69.4027 12.5 66.986 13.2331 64.9304 14.6066C62.8748 15.9801 61.2726 17.9324 60.3265 20.2165C59.3804 22.5005 59.1329 25.0139 59.6152 27.4386C60.0975 29.8634 61.288 32.0907 63.0362 33.8388C64.7843 35.587 67.0116 36.7775 69.4364 37.2598C71.8611 37.7421 74.3745 37.4946 76.6585 36.5485C78.9426 35.6024 80.8949 34.0002 82.2684 31.9446C83.6419 29.889 84.375 27.4723 84.375 25C84.3713 21.6859 83.0531 18.5087 80.7097 16.1653C78.3663 13.8219 75.1891 12.5037 71.875 12.5ZM71.875 34.375C70.0208 34.375 68.2082 33.8252 66.6665 32.795C65.1248 31.7649 63.9232 30.3007 63.2136 28.5877C62.5041 26.8746 62.3184 24.9896 62.6801 23.171C63.0419 21.3525 63.9348 19.682 65.2459 18.3709C66.557 17.0598 68.2275 16.1669 70.046 15.8051C71.8646 15.4434 73.7496 15.6291 75.4627 16.3386C77.1757 17.0482 78.6399 18.2498 79.67 19.7915C80.7002 21.3332 81.25 23.1458 81.25 25C81.2475 27.4856 80.259 29.8688 78.5014 31.6264C76.7438 33.384 74.3606 34.3725 71.875 34.375Z" fill="white"/>
<path d="M70.3125 40.625H60.9375C60.5231 40.625 60.1257 40.7896 59.8326 41.0826C59.5396 41.3757 59.375 41.7731 59.375 42.1875C59.375 42.6019 59.5396 42.9993 59.8326 43.2924C60.1257 43.5854 60.5231 43.75 60.9375 43.75H70.3125C70.7269 43.75 71.1243 43.5854 71.4174 43.2924C71.7104 42.9993 71.875 42.6019 71.875 42.1875C71.875 41.7731 71.7104 41.3757 71.4174 41.0826C71.1243 40.7896 70.7269 40.625 70.3125 40.625Z" fill="white"/>
<path d="M56.25 40.625H54.6875C54.2731 40.625 53.8757 40.7896 53.5826 41.0826C53.2896 41.3757 53.125 41.7731 53.125 42.1875C53.125 42.6019 53.2896 42.9993 53.5826 43.2924C53.8757 43.5854 54.2731 43.75 54.6875 43.75H56.25C56.6644 43.75 57.0618 43.5854 57.3549 43.2924C57.6479 42.9993 57.8125 42.6019 57.8125 42.1875C57.8125 41.7731 57.6479 41.3757 57.3549 41.0826C57.0618 40.7896 56.6644 40.625 56.25 40.625Z" fill="white"/>
</svg>
