<svg width="97" height="58" viewBox="0 0 97 58" fill="none" xmlns="http://www.w3.org/2000/svg">
<path d="M0 29C0 20.7753 2.11657 13.9125 6.34971 8.4116C10.6364 2.80387 16.2092 0 23.0679 0C29.8731 0 35.4191 2.77716 39.7058 8.33149C43.939 13.8324 46.0555 20.7219 46.0555 29C46.0555 37.2781 43.939 44.1676 39.7058 49.6685C35.4191 55.2228 29.8731 58 23.0679 58C16.2092 58 10.6364 55.2228 6.34971 49.6685C2.11657 44.1676 0 37.2781 0 29ZM40.1881 29C40.1881 22.3241 38.5805 16.7431 35.3655 12.2569C32.1505 7.77072 28.0513 5.52762 23.0679 5.52762C18.0846 5.52762 13.9854 7.77072 10.7704 12.2569C7.55536 16.7431 5.94783 22.3241 5.94783 29C5.94783 35.6759 7.52856 41.2836 10.69 45.8232C13.9051 50.256 18.031 52.4724 23.0679 52.4724C28.1049 52.4724 32.204 50.256 35.3655 45.8232C38.5805 41.337 40.1881 35.7293 40.1881 29Z" fill="white"/>
<path d="M65.551 57.0387H61.8683L85.835 16.2551H89.5177L65.551 57.0387ZM64.0896 15.556C66.9345 15.556 69.2922 16.5076 71.1627 18.4108C73.0333 20.2752 73.9686 22.5863 73.9686 25.344C73.9686 28.0629 73.0333 30.3934 71.1627 32.3355C69.2922 34.2387 66.9345 35.1904 64.0896 35.1904C61.2838 35.1904 58.9456 34.2387 57.075 32.3355C55.2434 30.3934 54.3276 28.0629 54.3276 25.344C54.3276 22.6251 55.2434 20.3141 57.075 18.4108C58.9456 16.5076 61.2838 15.556 64.0896 15.556ZM70.4613 25.344C70.4613 23.4797 69.8572 21.926 68.6491 20.6831C67.4411 19.4013 65.9212 18.7604 64.0896 18.7604C62.258 18.7604 60.7382 19.4013 59.5301 20.6831C58.361 21.926 57.7764 23.4797 57.7764 25.344C57.7764 27.2473 58.361 28.8398 59.5301 30.1215C60.6992 31.3645 62.2191 31.9859 64.0896 31.9859C65.9602 31.9859 67.48 31.3645 68.6491 30.1215C69.8572 28.8398 70.4613 27.2473 70.4613 25.344ZM87.1795 38.1035C90.0633 38.1035 92.4015 39.0551 94.1941 40.9583C96.0647 42.9004 97 45.2309 97 47.9498C97 50.6687 96.0647 52.9992 94.1941 54.9412C92.4015 56.8056 90.0633 57.7378 87.1795 57.7378C84.3736 57.7378 82.0354 56.8056 80.1648 54.9412C78.3333 52.9992 77.4174 50.6687 77.4174 47.9498C77.4174 45.2309 78.3333 42.9004 80.1648 40.9583C82.0354 39.0551 84.3736 38.1035 87.1795 38.1035ZM82.62 52.669C83.7891 53.9119 85.3089 54.5334 87.1795 54.5334C89.0501 54.5334 90.5699 53.9119 91.739 52.669C92.9081 51.4649 93.4927 49.8918 93.4927 47.9498C93.4927 46.0077 92.8886 44.4346 91.6806 43.2305C90.5115 41.9488 89.0111 41.3079 87.1795 41.3079C85.3869 41.3079 83.867 41.9488 82.62 43.2305C81.4509 44.4346 80.8663 46.0077 80.8663 47.9498C80.8663 49.8918 81.4509 51.4649 82.62 52.669Z" fill="white"/>
</svg>
