<svg width="45" height="50" viewBox="0 0 45 50" fill="none" xmlns="http://www.w3.org/2000/svg">
<path d="M39.036 42.9522H27.8175C27.6021 42.9522 27.3956 42.8667 27.2433 42.7144C27.0911 42.5621 27.0055 42.3556 27.0055 42.1403V34.083L23.0973 30.2939H10.1494C9.93942 30.2937 9.73765 30.2123 9.58646 30.0665L5.62684 26.2477C5.54849 26.1723 5.48608 26.0819 5.4433 25.982C5.40053 25.882 5.37827 25.7745 5.37784 25.6658V14.764C5.37777 14.6283 5.41167 14.4949 5.47644 14.3757C5.54121 14.2566 5.63479 14.1556 5.74863 14.0819L12.0467 10.0222C12.1693 9.94279 12.311 9.89798 12.457 9.89243C12.603 9.88689 12.7477 9.92081 12.876 9.99064C13.0043 10.0605 13.1114 10.1636 13.1859 10.2892C13.2605 10.4148 13.2999 10.5581 13.2998 10.7042V21.3597H33.5661L36.0426 18.9699C36.1933 18.8231 36.3951 18.7407 36.6055 18.7398H39.0414C39.2567 18.7398 39.4632 18.8254 39.6155 18.9776C39.7678 19.1299 39.8533 19.3364 39.8533 19.5518V42.1403C39.8533 42.2473 39.8321 42.3534 39.791 42.4522C39.7499 42.5511 39.6896 42.6409 39.6136 42.7163C39.5376 42.7918 39.4475 42.8515 39.3483 42.892C39.2492 42.9325 39.143 42.9529 39.036 42.9522ZM28.6294 41.3283H38.224V20.3637H36.9357L34.4565 22.7563C34.3054 22.902 34.1036 22.9835 33.8936 22.9836H12.4878C12.2725 22.9836 12.066 22.8981 11.9137 22.7458C11.7614 22.5935 11.6759 22.387 11.6759 22.1717V12.1901L7.00174 15.2051V25.3193L10.4769 28.6781H23.4248C23.6352 28.679 23.837 28.7614 23.9878 28.9082L28.3831 33.1547C28.461 33.2303 28.5229 33.3207 28.5652 33.4207C28.6075 33.5206 28.6294 33.628 28.6294 33.7366V41.3283Z" fill="#40C9F4"/>
<path d="M25.111 22.9836C24.8956 22.9836 24.6891 22.8981 24.5368 22.7458C24.3846 22.5935 24.299 22.387 24.299 22.1717V16.3906C24.299 16.1752 24.3846 15.9687 24.5368 15.8164C24.6891 15.6642 24.8956 15.5786 25.111 15.5786C25.3263 15.5786 25.5328 15.6642 25.6851 15.8164C25.8374 15.9687 25.9229 16.1752 25.9229 16.3906V22.1717C25.9229 22.387 25.8374 22.5935 25.6851 22.7458C25.5328 22.8981 25.3263 22.9836 25.111 22.9836Z" fill="#40C9F4"/>
<path d="M32.7947 50.0001C32.5794 50.0001 32.3729 49.9145 32.2206 49.7622C32.0683 49.61 31.9828 49.4034 31.9828 49.1881V42.1512C31.9828 41.9358 32.0683 41.7293 32.2206 41.577C32.3729 41.4248 32.5794 41.3392 32.7947 41.3392C33.0101 41.3392 33.2166 41.4248 33.3689 41.577C33.5211 41.7293 33.6067 41.9358 33.6067 42.1512V49.1881C33.6067 49.4034 33.5211 49.61 33.3689 49.7622C33.2166 49.9145 33.0101 50.0001 32.7947 50.0001Z" fill="#40C9F4"/>
<path d="M6.18978 20.4558H0.811952C0.596609 20.4558 0.390086 20.3703 0.237815 20.218C0.0855446 20.0657 0 19.8592 0 19.6439C0 19.4285 0.0855446 19.222 0.237815 19.0697C0.390086 18.9175 0.596609 18.8319 0.811952 18.8319H6.18978C6.40512 18.8319 6.61165 18.9175 6.76392 19.0697C6.91619 19.222 7.00173 19.4285 7.00173 19.6439C7.00173 19.8592 6.91619 20.0657 6.76392 20.218C6.61165 20.3703 6.40512 20.4558 6.18978 20.4558Z" fill="#40C9F4"/>
<path d="M43.7426 32.0206H39.036C38.8206 32.0206 38.6141 31.9351 38.4618 31.7828C38.3095 31.6305 38.224 31.424 38.224 31.2087C38.224 30.9933 38.3095 30.7868 38.4618 30.6345C38.6141 30.4823 38.8206 30.3967 39.036 30.3967H43.7426C43.9579 30.3967 44.1644 30.4823 44.3167 30.6345C44.469 30.7868 44.5545 30.9933 44.5545 31.2087C44.5545 31.424 44.469 31.6305 44.3167 31.7828C44.1644 31.9351 43.9579 32.0206 43.7426 32.0206Z" fill="#40C9F4"/>
<path d="M43.7426 50H21.2786C21.0632 50 20.8567 49.9145 20.7044 49.7622C20.5521 49.6099 20.4666 49.4034 20.4666 49.188V41.6937L15.465 36.9952H8.01397C7.88883 36.9955 7.76533 36.9667 7.65312 36.9113C7.54091 36.8559 7.44303 36.7753 7.36711 36.6759L0.165097 27.1814C0.0581635 27.0405 0.000192197 26.8685 0 26.6916V10.4282C0.000766509 10.3186 0.0237017 10.2103 0.0674247 10.1099C0.111148 10.0094 0.174753 9.9188 0.254411 9.84356L10.4769 0.221933C10.6269 0.0801138 10.8253 0.000756371 11.0317 0H17.235C17.4504 0 17.6569 0.0855446 17.8092 0.237815C17.9614 0.390086 18.047 0.596609 18.047 0.811952V15.5787H29.9556V9.89499C29.9556 9.67964 30.0412 9.47312 30.1934 9.32085C30.3457 9.16858 30.5522 9.08304 30.7676 9.08304H43.7317C43.9471 9.08304 44.1536 9.16858 44.3059 9.32085C44.4581 9.47312 44.5437 9.67964 44.5437 9.89499V49.188C44.5437 49.4015 44.4596 49.6064 44.3097 49.7584C44.1598 49.9104 43.956 49.9972 43.7426 50ZM22.0905 48.3761H42.9306V10.6961H31.5903V16.3798C31.5903 16.5951 31.5048 16.8016 31.3525 16.9539C31.2003 17.1062 30.9937 17.1917 30.7784 17.1917H17.2459C17.0305 17.1917 16.824 17.1062 16.6717 16.9539C16.5195 16.8016 16.4339 16.5951 16.4339 16.3798V1.6239H11.3538L1.6239 10.7773V26.4182L8.41724 35.3713H15.7816C15.9834 35.3755 16.1764 35.4546 16.3229 35.5933L21.8063 40.7492C21.887 40.8253 21.9512 40.9172 21.9949 41.0192C22.0387 41.1211 22.0611 41.2309 22.0607 41.3419L22.0905 48.3761Z" fill="#111516"/>
</svg>
