<svg width="26" height="50" viewBox="0 0 26 50" fill="none" xmlns="http://www.w3.org/2000/svg">
<path d="M17.7941 14.3342H12.6921C12.4891 14.3342 12.2945 14.2536 12.1509 14.11C12.0074 13.9665 11.9268 13.7719 11.9268 13.5689C11.9268 13.3659 12.0074 13.1713 12.1509 13.0277C12.2945 12.8842 12.4891 12.8036 12.6921 12.8036H17.7941C17.9971 12.8036 18.1918 12.8842 18.3353 13.0277C18.4788 13.1713 18.5594 13.3659 18.5594 13.5689C18.5594 13.7719 18.4788 13.9665 18.3353 14.11C18.1918 14.2536 17.9971 14.3342 17.7941 14.3342Z" fill="#40C9F4"/>
<path d="M17.7941 20.4566H12.6921C12.4891 20.4566 12.2945 20.376 12.1509 20.2325C12.0074 20.089 11.9268 19.8943 11.9268 19.6913C11.9268 19.4884 12.0074 19.2937 12.1509 19.1502C12.2945 19.0067 12.4891 18.926 12.6921 18.926H17.7941C17.9971 18.926 18.1918 19.0067 18.3353 19.1502C18.4788 19.2937 18.5594 19.4884 18.5594 19.6913C18.5594 19.8943 18.4788 20.089 18.3353 20.2325C18.1918 20.376 17.9971 20.4566 17.7941 20.4566Z" fill="#40C9F4"/>
<path d="M17.7941 23.5178H12.6921C12.4891 23.5178 12.2945 23.4372 12.1509 23.2936C12.0074 23.1501 11.9268 22.9555 11.9268 22.7525C11.9268 22.5495 12.0074 22.3549 12.1509 22.2113C12.2945 22.0678 12.4891 21.9872 12.6921 21.9872H17.7941C17.9971 21.9872 18.1918 22.0678 18.3353 22.2113C18.4788 22.3549 18.5594 22.5495 18.5594 22.7525C18.5594 22.9555 18.4788 23.1501 18.3353 23.2936C18.1918 23.4372 17.9971 23.5178 17.7941 23.5178Z" fill="#40C9F4"/>
<path d="M12.7406 50C10.1539 49.9996 7.62855 49.212 5.50025 47.7419C3.37195 46.2718 1.74148 44.1887 0.82556 41.7696C-0.0903618 39.3505 -0.248353 36.7099 0.372585 34.1988C0.993523 31.6878 2.36398 29.4252 4.3018 27.7117V8.625C4.3018 6.33751 5.21051 4.14371 6.82801 2.5262C8.44551 0.908703 10.6393 0 12.9268 0C15.2143 0 17.4081 0.908703 19.0256 2.5262C20.6431 4.14371 21.5518 6.33751 21.5518 8.625V28.0612C23.3878 29.8203 24.6554 32.0886 25.1915 34.5741C25.7276 37.0596 25.5077 39.6487 24.5601 42.0082C23.6124 44.3677 21.9804 46.3897 19.874 47.8139C17.7676 49.2382 15.2833 49.9995 12.7406 50ZM12.9268 1.53061C11.0461 1.53331 9.24317 2.28162 7.91329 3.61149C6.58342 4.94136 5.83511 6.74428 5.83241 8.625V28.4209L5.55945 28.6505C3.80559 30.1133 2.54028 32.0768 1.93281 34.2784C1.32534 36.4799 1.40469 38.8145 2.16023 40.9697C2.91578 43.1249 4.31149 44.998 6.16063 46.3384C8.00976 47.6787 10.2241 48.4224 12.5075 48.4699C14.7908 48.5174 17.0342 47.8665 18.9374 46.6042C20.8407 45.3419 22.3131 43.5285 23.1577 41.4066C24.0022 39.2846 24.1786 36.9554 23.6632 34.7305C23.1478 32.5056 21.9652 30.4911 20.2737 28.9566L20.0186 28.7296V8.625C20.0166 6.74451 19.2689 4.94159 17.9394 3.61165C16.6099 2.2817 14.8073 1.53331 12.9268 1.53061Z" fill="#111516"/>
<path d="M12.7406 47.0051C10.6837 47.0052 8.6794 46.3546 7.01468 45.1464C5.34996 43.9383 4.11011 42.2344 3.47257 40.2788C2.83503 38.3232 2.8325 36.216 3.46532 34.2588C4.09814 32.3016 5.33389 30.5948 6.99569 29.3826L7.29671 29.1632V8.62497C7.32806 7.15219 7.93513 5.7503 8.98781 4.71979C10.0405 3.68929 11.455 3.11218 12.9281 3.11218C14.4012 3.11218 15.8157 3.68929 16.8684 4.71979C17.921 5.7503 18.5281 7.15219 18.5595 8.62497V29.4311L18.8324 29.6505C20.4066 30.9129 21.55 32.6329 22.1048 34.573C22.6596 36.5131 22.5986 38.5775 21.93 40.4814C21.2614 42.3853 20.0183 44.0346 18.3722 45.2018C16.7262 46.369 14.7584 46.9964 12.7406 46.9974V47.0051ZM12.9268 4.52548C11.84 4.52683 10.798 4.95917 10.0295 5.72769C9.26102 6.4962 8.82867 7.53813 8.82732 8.62497V29.9413L7.89365 30.6122C6.50512 31.6244 5.46885 33.0465 4.93063 34.6783C4.39241 36.3102 4.37931 38.0697 4.89319 39.7094C5.40706 41.3491 6.42205 42.7864 7.79537 43.8191C9.16868 44.8519 10.8312 45.4282 12.5491 45.4668C14.267 45.5055 15.9538 45.0046 17.3721 44.0347C18.7905 43.0647 19.8692 41.6745 20.4563 40.0596C21.0434 38.4447 21.1095 36.6864 20.6452 35.032C20.181 33.3776 19.2097 31.9104 17.8681 30.8367L17.0212 30.1581V8.62497C17.0199 7.53902 16.5882 6.49785 15.8208 5.72948C15.0534 4.96112 14.0128 4.52818 12.9268 4.52548Z" fill="#111516"/>
<path d="M17.7941 17.3954H5.06709C4.86412 17.3954 4.66947 17.3147 4.52594 17.1712C4.38242 17.0277 4.30179 16.833 4.30179 16.6301C4.30179 16.4271 4.38242 16.2324 4.52594 16.0889C4.66947 15.9454 4.86412 15.8647 5.06709 15.8647H17.7941C17.9971 15.8647 18.1918 15.9454 18.3353 16.0889C18.4788 16.2324 18.5594 16.4271 18.5594 16.6301C18.5594 16.833 18.4788 17.0277 18.3353 17.1712C18.1918 17.3147 17.9971 17.3954 17.7941 17.3954Z" fill="#111516"/>
</svg>
