<svg width="170" height="170" viewBox="0 0 170 170" fill="none" xmlns="http://www.w3.org/2000/svg">
<path d="M135.15 28.05H34.85C34.3991 28.05 33.9667 28.2292 33.6479 28.548C33.3291 28.8668 33.15 29.2992 33.15 29.75V97.75C33.15 98.2009 33.3291 98.6333 33.6479 98.9521C33.9667 99.2709 34.3991 99.45 34.85 99.45H99.45V140.25C99.45 140.701 99.6291 141.133 99.9479 141.452C100.267 141.771 100.699 141.95 101.15 141.95H135.15C135.601 141.95 136.033 141.771 136.352 141.452C136.671 141.133 136.85 140.701 136.85 140.25V29.75C136.85 29.2992 136.671 28.8668 136.352 28.548C136.033 28.2292 135.601 28.05 135.15 28.05ZM36.55 31.45H66.3V96.05H36.55V31.45ZM69.7 96.05V31.45H99.45V96.05H69.7ZM133.45 138.55H102.85V31.45H133.45V138.55Z" fill="#111516"/>
<rect x="85.7735" y="81.0247" width="0.519384" height="11.4264" rx="0.259692" transform="rotate(45 85.7735 81.0247)" fill="#111516"/>
<rect x="88.3704" y="74.792" width="0.519384" height="11.4264" rx="0.259692" transform="rotate(45 88.3704 74.792)" fill="#111516"/>
<rect x="89.6327" y="81.0247" width="0.519384" height="6.6009" rx="0.259692" transform="rotate(45 89.6327 81.0247)" fill="#111516"/>
<rect x="52.7735" y="51.0247" width="0.519384" height="11.4264" rx="0.259692" transform="rotate(45 52.7735 51.0247)" fill="#111516"/>
<rect x="55.3704" y="44.792" width="0.519384" height="11.4264" rx="0.259692" transform="rotate(45 55.3704 44.792)" fill="#111516"/>
<rect x="56.6327" y="51.0247" width="0.519384" height="6.6009" rx="0.259692" transform="rotate(45 56.6327 51.0247)" fill="#111516"/>
<rect x="119.773" y="61.0247" width="0.519384" height="11.4264" rx="0.259692" transform="rotate(45 119.773 61.0247)" fill="#111516"/>
<rect x="122.37" y="54.792" width="0.519384" height="11.4264" rx="0.259692" transform="rotate(45 122.37 54.792)" fill="#111516"/>
<rect x="123.633" y="61.0247" width="0.519384" height="6.6009" rx="0.259692" transform="rotate(45 123.633 61.0247)" fill="#111516"/>
</svg>
