<svg width="170" height="170" viewBox="0 0 170 170" fill="none" xmlns="http://www.w3.org/2000/svg">
<path d="M118.15 49.3H51.85C51.3992 49.3 50.9668 49.4792 50.6479 49.798C50.3291 50.1168 50.15 50.5492 50.15 51V119C50.15 119.451 50.3291 119.883 50.6479 120.202C50.9668 120.521 51.3992 120.7 51.85 120.7H118.15C118.601 120.7 119.033 120.521 119.352 120.202C119.671 119.883 119.85 119.451 119.85 119V51C119.85 50.5492 119.671 50.1168 119.352 49.798C119.033 49.4792 118.601 49.3 118.15 49.3ZM53.55 52.7H83.3V117.3H53.55V52.7ZM116.45 117.3H86.7V52.7H116.45V117.3Z" fill="#111516"/>
<rect x="69.7735" y="71.0247" width="0.519384" height="11.4264" rx="0.259692" transform="rotate(45 69.7735 71.0247)" fill="#111516"/>
<rect x="72.3704" y="64.792" width="0.519384" height="11.4264" rx="0.259692" transform="rotate(45 72.3704 64.792)" fill="#111516"/>
<rect x="73.6327" y="71.0247" width="0.519384" height="6.6009" rx="0.259692" transform="rotate(45 73.6327 71.0247)" fill="#111516"/>
<rect x="102.773" y="92.0247" width="0.519384" height="11.4264" rx="0.259692" transform="rotate(45 102.773 92.0247)" fill="#111516"/>
<rect x="105.37" y="85.792" width="0.519384" height="11.4264" rx="0.259692" transform="rotate(45 105.37 85.792)" fill="#111516"/>
<rect x="106.633" y="92.0247" width="0.519384" height="6.6009" rx="0.259692" transform="rotate(45 106.633 92.0247)" fill="#111516"/>
</svg>
