<svg width="170" height="170" viewBox="0 0 170 170" fill="none" xmlns="http://www.w3.org/2000/svg">
<path d="M134.725 49.3H35.275C34.8241 49.3 34.3917 49.4792 34.0729 49.798C33.7541 50.1168 33.575 50.5492 33.575 51V119C33.575 119.451 33.7541 119.883 34.0729 120.202C34.3917 120.521 34.8241 120.7 35.275 120.7H134.725C135.176 120.7 135.608 120.521 135.927 120.202C136.246 119.883 136.425 119.451 136.425 119V51C136.425 50.5492 136.246 50.1168 135.927 49.798C135.608 49.4792 135.176 49.3 134.725 49.3ZM36.975 52.7H66.725V117.3H36.975V52.7ZM70.125 52.7H99.875V117.3H70.125V52.7ZM133.025 117.3H103.275V52.7H133.025V117.3Z" fill="#111516"/>
<rect x="86.7735" y="71.0247" width="0.519384" height="11.4264" rx="0.259692" transform="rotate(45 86.7735 71.0247)" fill="#111516"/>
<rect x="89.3704" y="64.792" width="0.519384" height="11.4264" rx="0.259692" transform="rotate(45 89.3704 64.792)" fill="#111516"/>
<rect x="90.6327" y="71.0247" width="0.519384" height="6.6009" rx="0.259692" transform="rotate(45 90.6327 71.0247)" fill="#111516"/>
<rect x="52.7735" y="92.0247" width="0.519384" height="11.4264" rx="0.259692" transform="rotate(45 52.7735 92.0247)" fill="#111516"/>
<rect x="55.3704" y="85.792" width="0.519384" height="11.4264" rx="0.259692" transform="rotate(45 55.3704 85.792)" fill="#111516"/>
<rect x="56.6327" y="92.0247" width="0.519384" height="6.6009" rx="0.259692" transform="rotate(45 56.6327 92.0247)" fill="#111516"/>
<rect x="119.773" y="85.0247" width="0.519384" height="11.4264" rx="0.259692" transform="rotate(45 119.773 85.0247)" fill="#111516"/>
<rect x="122.37" y="78.792" width="0.519384" height="11.4264" rx="0.259692" transform="rotate(45 122.37 78.792)" fill="#111516"/>
<rect x="123.633" y="85.0247" width="0.519384" height="6.6009" rx="0.259692" transform="rotate(45 123.633 85.0247)" fill="#111516"/>
</svg>
