<svg width="170" height="170" viewBox="0 0 170 170" fill="none" xmlns="http://www.w3.org/2000/svg">
<path d="M118.575 28.05H51.425C50.9741 28.05 50.5417 28.2292 50.2229 28.548C49.9041 28.8668 49.725 29.2992 49.725 29.75V97.75C49.725 98.2009 49.9041 98.6333 50.2229 98.9521C50.5417 99.2709 50.9741 99.45 51.425 99.45H82.875V140.25C82.875 140.701 83.0541 141.133 83.3729 141.452C83.6917 141.771 84.1241 141.95 84.575 141.95H118.575C119.026 141.95 119.458 141.771 119.777 141.452C120.096 141.133 120.275 140.701 120.275 140.25V29.75C120.275 29.2992 120.096 28.8668 119.777 28.548C119.458 28.2292 119.026 28.05 118.575 28.05ZM53.125 96.05V31.45H82.875V96.05H53.125ZM116.875 138.55H86.275V31.45H116.875V138.55Z" fill="#111516"/>
<rect x="69.7735" y="54.0247" width="0.519384" height="11.4264" rx="0.259692" transform="rotate(45 69.7735 54.0247)" fill="#111516"/>
<rect x="72.3704" y="47.792" width="0.519384" height="11.4264" rx="0.259692" transform="rotate(45 72.3704 47.792)" fill="#111516"/>
<rect x="73.6327" y="54.0247" width="0.519384" height="6.6009" rx="0.259692" transform="rotate(45 73.6327 54.0247)" fill="#111516"/>
<rect x="103.773" y="76.0247" width="0.519384" height="11.4264" rx="0.259692" transform="rotate(45 103.773 76.0247)" fill="#111516"/>
<rect x="106.37" y="69.792" width="0.519384" height="11.4264" rx="0.259692" transform="rotate(45 106.37 69.792)" fill="#111516"/>
<rect x="107.633" y="76.0247" width="0.519384" height="6.6009" rx="0.259692" transform="rotate(45 107.633 76.0247)" fill="#111516"/>
</svg>
