<svg width="170" height="170" viewBox="0 0 170 170" fill="none" xmlns="http://www.w3.org/2000/svg">
<path d="M102 141.95H68C67.5491 141.95 67.1167 141.771 66.7979 141.452C66.4791 141.133 66.3 140.701 66.3 140.25V29.75C66.3 29.2992 66.4791 28.8668 66.7979 28.548C67.1167 28.2292 67.5491 28.05 68 28.05H102C102.451 28.05 102.883 28.2292 103.202 28.548C103.521 28.8668 103.7 29.2992 103.7 29.75V140.25C103.7 140.701 103.521 141.133 103.202 141.452C102.883 141.771 102.451 141.95 102 141.95ZM69.7 138.55H100.3V31.45H69.7V138.55Z" fill="#111516"/>
<rect x="86.7735" y="81.0247" width="0.519384" height="11.4264" rx="0.259692" transform="rotate(45 86.7735 81.0247)" fill="#111516"/>
<rect x="89.3704" y="74.792" width="0.519384" height="11.4264" rx="0.259692" transform="rotate(45 89.3704 74.792)" fill="#111516"/>
<rect x="90.6327" y="81.0247" width="0.519384" height="6.6009" rx="0.259692" transform="rotate(45 90.6327 81.0247)" fill="#111516"/>
</svg>
