<svg width="170" height="170" viewBox="0 0 170 170" fill="none" xmlns="http://www.w3.org/2000/svg">
<path d="M110.5 120.7H59.5C59.0491 120.7 58.6167 120.521 58.2979 120.202C57.9791 119.883 57.8 119.451 57.8 119V51C57.8 50.5492 57.9791 50.1168 58.2979 49.798C58.6167 49.4792 59.0491 49.3 59.5 49.3H110.5C110.951 49.3 111.383 49.4792 111.702 49.798C112.021 50.1168 112.2 50.5492 112.2 51V119C112.2 119.451 112.021 119.883 111.702 120.202C111.383 120.521 110.951 120.7 110.5 120.7ZM61.2 117.3H108.8V52.7H61.2V117.3Z" fill="#111516"/>
<rect x="86.7735" y="81.0247" width="0.519384" height="11.4264" rx="0.259692" transform="rotate(45 86.7735 81.0247)" fill="#111516"/>
<rect x="89.3704" y="74.792" width="0.519384" height="11.4264" rx="0.259692" transform="rotate(45 89.3704 74.792)" fill="#111516"/>
<rect x="90.6327" y="81.0247" width="0.519384" height="6.6009" rx="0.259692" transform="rotate(45 90.6327 81.0247)" fill="#111516"/>
</svg>
